<svg width="42" height="24" viewBox="0 0 42 24" fill="none" xmlns="http://www.w3.org/2000/svg">
<mask id="mask0_143_60508" style="mask-type:alpha" maskUnits="userSpaceOnUse" x="0" y="3" width="18" height="18">
<rect y="3" width="18" height="18" fill="#D9D9D9"/>
</mask>
<g mask="url(#mask0_143_60508)">
<path d="M6 12.75V7.36875L4.06875 9.3L3 8.25L6.75 4.5L10.5 8.25L9.43125 9.3L7.5 7.36875V12.75H6ZM11.25 19.5L7.5 15.75L8.56875 14.7L10.5 16.6312V11.25H12V16.6312L13.9313 14.7L15 15.75L11.25 19.5Z" fill="black"/>
</g>
<path fill-rule="evenodd" clip-rule="evenodd" d="M22 21V3C22 1.9 22.9 1.01 24 1.01L34 1C35.1 1 36 1.9 36 3V7H34V6H24V18H34V17H36V21C36 22.1 35.1 23 34 23H24C22.9 23 22 22.1 22 21ZM34 21V20H24V21H34ZM24 3H34V4H24V3ZM39.2 9.55L37.8 8.15L32.75 13.2L30.4 10.85L29 12.25L32.75 16L39.2 9.55Z" fill="black"/>
</svg>
