<svg id="Group_48061" data-name="Group 48061" xmlns="http://www.w3.org/2000/svg" xmlns:xlink="http://www.w3.org/1999/xlink" width="55.398" height="72.967" viewBox="0 0 55.398 72.967">
  <defs>
    <clipPath id="clip-path">
      <rect id="Rectangle_3524" data-name="Rectangle 3524" width="55.398" height="72.967" fill="#bd202e"/>
    </clipPath>
  </defs>
  <g id="Group_48059" data-name="Group 48059">
    <rect id="Rectangle_3530" data-name="Rectangle 3530" width="45.11" height="65.686" rx="9" transform="translate(5.54 2.963)" fill="#fff"/>
    <g id="Group_48041" data-name="Group 48041">
      <g id="Group_48040" data-name="Group 48040" clip-path="url(#clip-path)">
        <path id="Path_73679" data-name="Path 73679" d="M49.6,69.974a3.1,3.1,0,0,1,1.091-.667c-.174.11-.374.255-.591.421s-.46.346-.72.518a12.2,12.2,0,0,1-1.6.967c.1-.128.192-.268.285-.4l.17-.007a3.652,3.652,0,0,0,.692-.354c.233-.148.46-.318.676-.477m.865-.94c-.079.046-.161.088-.242.131-.1.119-.206.245-.316.362a3.87,3.87,0,0,1,.494-.357c.191-.128.342-.253.3-.277ZM55.084,49.74a.29.29,0,0,1,.031.016V49.67c-.01.024-.02.046-.03.07M55.3,53.2a1.522,1.522,0,0,0,.081-.62c-.032.186-.058.4-.081.62m-40.965,6.94c0-.094,0-.166.006-.228s0-.1,0-.15c0-.581-.365-.628-.806-.628H11.8a.386.386,0,0,0-.294.127,1.01,1.01,0,0,0-.139.725c0,.062,0,.124,0,.185,0,.474.6.474.8.474.09,0,.176,0,.246-.006l.1,0h.909c.032,0,.07,0,.111,0,.056,0,.118.006.179.006.561,0,.622-.353.622-.5M29.5,48.49a3.053,3.053,0,0,0,.207.526l.052.092a5.34,5.34,0,0,0,.383-.917,1.537,1.537,0,0,0-.216.072,2.584,2.584,0,0,0-.426.228M20.979,59.034H19.15a.422.422,0,0,0-.487.472l-.01,2.079c0,.478.313.515.406.515L21,62.132c.353,0,.555-.221.555-.609l-.01-1.881c0-.42-.174-.607-.564-.607M10.71,41.06a16.144,16.144,0,0,1,.41-3.345,4.945,4.945,0,0,1,1.538.346,5.946,5.946,0,0,0,.826-.014c.692-.1,1.267-1.257,1.431-1.832a15.227,15.227,0,0,0,.718-3.807.952.952,0,0,0-.777-.882c-.681-.148-1.4-.084-2.077-.189-.084-.585-.091-1.193-.135-1.783a.442.442,0,0,1,.1-.388.432.432,0,0,1,.223-.072l3.465-.448c.355-.046.536-.743.666-1.03.214-.47.411-.948.595-1.431a31.679,31.679,0,0,0,1.02-3.238c.185-.708.308-1.432.489-2.142s.45-1.431.595-2.159a12.3,12.3,0,0,1,.5-1.832c.234-.644.63-1.571-.1-2.015a2.622,2.622,0,0,0-.73-.264l-2.7-.683a4.9,4.9,0,0,1-1.426-.36c-.313-.238-.2-.066-.241-.445a4.618,4.618,0,0,1,.238-1.615c.147-.573.26-.836.887-.813.414.015.829.028,1.243.044q1.783.067,3.566.141a7.06,7.06,0,0,0,1.354-.061,9.247,9.247,0,0,1,1.677.053q2.266.1,4.536.038,1.134-.029,2.266-.1c.63-.039,1.266-.136,1.9-.136a37.365,37.365,0,0,0,4.2-.319c.605-.068,1.21-.142,1.808-.261.315-.063,1.207-.492,1.442-.171a2.715,2.715,0,0,1,.268.943,4.834,4.834,0,0,1,.234,1.393c-.035.436-1.08.514-1.381.58-.178.039-1.249.57-2.108.876a1.513,1.513,0,0,0-.712.418,1.349,1.349,0,0,0-.032,1.194c.242.7.348,1.391.576,2.1l.429,1.327a42.633,42.633,0,0,0,1.128,5.193,18.718,18.718,0,0,0,1.571,3.344,1,1,0,0,0,1.268.555c1-.133,2-.242,3.007-.342a.82.82,0,0,1,.434.035c.29.137.2.859.22,1.14,0,.55.48,1.427.065,1.92-.235.279-.8.316-1.13.406a22.35,22.35,0,0,1-2.356.489c-.354.057-.571.372-.786.626a.4.4,0,0,0-.067.1,4.05,4.05,0,0,0,.068,1.883q.118,1.051.235,2.1a1.562,1.562,0,0,0,.146.59.631.631,0,0,0,.607.308H42c.58-.163,1.165-.315,1.757-.43.192-.038,1.105-.281,1.219-.123a.385.385,0,0,1,.053.187q.084.815.21,1.623a5.226,5.226,0,0,0,.128,1.114c.269.677-.712.437-1.1.583a.932.932,0,0,0-.728.968l.244,1.864a13.289,13.289,0,0,0,.829,3.126,11.364,11.364,0,0,1,.412,1.259,6.774,6.774,0,0,1,.362,1.6v.115q0,.289-4.206,1.269L39.842,43.6a3.851,3.851,0,0,0-.169-1.016c-.1-.346-.114-.7-.185-1.055a1.16,1.16,0,0,0-.569-.862,1.492,1.492,0,0,0-.714-.075c-.864.05-1.733.022-2.585.148-.3.045-.6.1-.9.139a62.22,62.22,0,0,1-9.854-.394h-4.26c-.7,0-1.41.149-2.118.2a.236.236,0,0,0-.25.181,33.023,33.023,0,0,0-1.783,5.161,21.84,21.84,0,0,1-1.539,3.807,14.867,14.867,0,0,1-2.77-.461v-.115a19.087,19.087,0,0,1,.923-3.462,5.621,5.621,0,0,1,.228-1q.133-.638.273-1.276c.131-.6.4-1.133.006-1.67a.692.692,0,0,0-.594-.38c-.151-.021-2.271-.2-2.272-.405m9.809-14.085a.6.6,0,0,0,.13.24.943.943,0,0,0,.254.259.927.927,0,0,0,.331.1c.082.013.165.023.248.031.7.068,1.449-.018,2.147-.01a22.743,22.743,0,0,1,2.838.147c.824.113,1.672.132,2.5.166.148.006.321-.044.479-.041.558.01,1.118.107,1.675.157a22.241,22.241,0,0,1,2.36-.116H34.1a2.745,2.745,0,0,0,.785-.17c.268-.082.37-.418.428-.682a3.2,3.2,0,0,0-.091-1.063c-.047-.348-.093-.7-.141-1.044-.074-.545-.544-2.13-.571-2.348a13.63,13.63,0,0,0-.821-4.038q-.873-4.039-1.743-4.038c-.734,0-1.473.066-2.21.066a12.6,12.6,0,0,0-1.688.165H26.1l-.786-.074c-.331-.031-.726-.11-.955.216a2.819,2.819,0,0,0-.234.3,3.161,3.161,0,0,0-.146.5c-.085.28-.174.559-.274.834-.322.887-.7,1.753-1.016,2.64-.181.516-.4,1.043-.6,1.561a6.646,6.646,0,0,0-.52,1.6,24.643,24.643,0,0,1-.73,3.3c-.061.243-.131.485-.186.729a1.833,1.833,0,0,0-.134.625m-2.013,9.816q.076.924.718.923a11.634,11.634,0,0,0,1.814-.235,16.484,16.484,0,0,1,3.032.02q.785.021,1.568.076c.642.045,3.372-.033,3.644-.048a14.95,14.95,0,0,0,2-.089c1.093-.21,5.465-.186,5.793-.186q.82,0,.821-.923V36.1c-.173-.692-.314-1.391-.428-2.095-.107-.66-.252-1.286-.385-1.94a.857.857,0,0,0-.3-.573l-.228-.231a.423.423,0,0,0-.13-.1.429.429,0,0,0-.178-.021c-1.546.031-3.079.064-4.621.225-1.251.131-2.474.5-3.744.552-.773.03-1.566-.028-2.327-.051-1.631-.051-3.26-.152-4.887-.264a11.341,11.341,0,0,0-2.154,5.193m10.1,13.172c.013.122.056.16.09.176.129,0,.343-.087.66-.445A3.483,3.483,0,0,1,29,48.969a1.86,1.86,0,0,0-.391.994m-7.559-14.4a.683.683,0,0,0,.288.019,31.889,31.889,0,0,1,4.794.21c.258.021.525.067.784.067h.1c1.62-.106,3.23-.311,4.845-.471.63-.062,1.26-.118,1.892-.158q.472-.03.945-.047a3.87,3.87,0,0,0,.909-.119,1.1,1.1,0,0,0-.009-.489c-.022-.175-.042-.569-.059-.745-.021-.215.036-.483-.161-.62a.163.163,0,0,0-.057-.029.173.173,0,0,0-.059,0,6.252,6.252,0,0,1-.882.048c-.308.011-.616.029-.923.05-.606.043-1.211.1-1.816.169q-.8.086-1.6.21c-.2.032-.4.107-.6.14a5.434,5.434,0,0,1-.9,0q-1.023-.008-2.048-.007c-1.18,0-2.358,0-3.538-.03a10.718,10.718,0,0,1-1.165-.108.394.394,0,0,0-.176,0,.134.134,0,0,0-.038.02c-.053.04-.066.113-.094.173-.048.1-.111.2-.164.3a7.283,7.283,0,0,0-.256.829,2.013,2.013,0,0,0-.092.422c-.009.091-.014.125.079.162m2.562-9.924q.469-.045.939-.084c.376-.031,2.672.2,4.211.279l2.462.115a7.783,7.783,0,0,1,.964-.071c.2-.009.4-.016.6-.023.162-.005.461.042.594-.062a.381.381,0,0,0,.067-.435c-.125-.331-.23-.669-.335-1.008q-.2-.631-.354-1.273a25.258,25.258,0,0,1-.508-2.667,9.069,9.069,0,0,0-.264-1.14c-.107-.395-.218-.789-.33-1.183q-.109-.381-.22-.762c-.045-.154-.071-.5-.207-.607-.186-.146-.726-.078-.957-.071a11.328,11.328,0,0,0-1.473.14,4.123,4.123,0,0,1-.652.046H26.459a2.109,2.109,0,0,0-.71.008c-.2.081-.285.406-.354.587-.115.3-.22.6-.324.905a16.244,16.244,0,0,0-1.128,3c-.055.167-.171.328-.231.5a8.559,8.559,0,0,0-.253.9c-.1.416-.173.836-.256,1.255-.091.458-.26.9-.368,1.359a.366.366,0,0,0-.014.137.162.162,0,0,0,.009.035c.094.24.608.135.785.118m-13.556,28.9h0a.074.074,0,0,1,.02-.022.084.084,0,0,0-.021.022Zm45.026-4.8c-.278.681-.789,1.2-.953.495l.033,1.147c.034-.253.1.062.118.49l-.093.033a.588.588,0,0,1-.012-.075c.059,2.014.17,4.041.173,6.051a.55.55,0,0,1-.08.333.225.225,0,0,1-.306.066c.147.266-.111.575-.13.879a1.118,1.118,0,0,0,.311.709,2.381,2.381,0,0,0,.195-.472,17.91,17.91,0,0,1-.151,2.432,4.345,4.345,0,0,1-.6,1.774c-.267.493-.192,1.13-.423,1.656a8.434,8.434,0,0,1-1.188,1.892,13.023,13.023,0,0,1-6.773,4.2,19.112,19.112,0,0,1-5.028.643H38.144c.45.207.864.4.386.573l.654-.048c-.216.267-2.052.006-2.428.285l-2.065-.279c.065.1-.274.249.058.284-.51.005-.955.019-.287.163a44.778,44.778,0,0,0-6.441-.321c-1.591.011-3.18.056-4.77.055-.787,0-1.574-.011-2.361-.044a5.212,5.212,0,0,0-2.075.065c-.15.057-.394.261-.564.212l-1.309-.37c-.531.11-.116.223-.155.3-.156,0-.308.008-.466.008l-.477-.007c-.317,0-.633-.028-.946-.054-.626-.051-1.241-.147-1.836-.252-1.194-.215-2.3-.525-3.337-.775-.3-.177-.23-.233-.2-.288.018-.028.028-.055-.017-.1a1.748,1.748,0,0,0-.339-.195c.237.2.209.255.033.223a4.14,4.14,0,0,1-.819-.283c-.609-.252-1.224-.623-1.088-.407A16.666,16.666,0,0,0,5.944,69.47a3.053,3.053,0,0,1-.51-.6c-.086-.167-.074-.277.093-.309a4.938,4.938,0,0,0-.406-.395c-.1-.079-.166-.107-.209-.1-.085.01-.067.153.015.286-.8-.94-1.32-1.776-1.924-2.6a3.29,3.29,0,0,0-.159-.41c-.081-.185-.17-.42-.282-.685a16.468,16.468,0,0,1-.618-1.906,8.565,8.565,0,0,1-.321-3.426c-.205.75-.155-.043-.32-.728-.073.21-.13.431-.194.649-.044-.537-.049-1.046-.072-1.568-.04-.315-.035-.405-.013-.4,0-.264.143.055.169-.617a5.187,5.187,0,0,0-.11-1.019c-.054-.216-.123-.371-.194-.659l-.031.162-.044-.715c-.008-.527.3,1.855.371.133a2.46,2.46,0,0,1-.254-1.49c.006.878.177.763.238.439-.007-.41,0-.819,0-1.228l-.3.411c-.007-.881,0-1.77.009-2.668q.023-.822.046-1.653l-.122-.5a9.788,9.788,0,0,0-.487,2.861C0,50.258.351,50.493,0,49.76c.429.614.085-2.379.467-1.7-.34-.7-.113-1.242-.439-2.181.106.032.194.349.166-.512a.92.92,0,0,0,.1-.187c0-.027,0-.036-.006-.058,0,.018.007.03.011.048.017-.037.02-.04,0,.018a1.157,1.157,0,0,0,.149.441,14.4,14.4,0,0,0,.429-2.251c-.036-.511-.128.212-.234-.068l.209-.688C.623,42.553.5,41.264.33,42.463l.021-1.082a6.2,6.2,0,0,1-.026-2.054c-.036-.511.3-1.285.1-.844l.2-1.694-.058-.016c.019-1.674.492-3.44.122-5.36a10.4,10.4,0,0,0,.127-2.087l-.2-.187c.093-.723-.141-2.176.081-2.484-.527-.788-.017-3.513-.078-4.787l.269-.044a23.914,23.914,0,0,1,.25-2.8l.234.071a6.353,6.353,0,0,0,.043-1.742c-.022-.337-.048-.686-.066-1.052a7.691,7.691,0,0,1,.005-1.164,1.282,1.282,0,0,0-.049.788,5.2,5.2,0,0,1,.286-2.939c.131-.382.278-.749.423-1.107.015-.348.039-.672.048-.906.028,0,.065-.041.117-.157a1.937,1.937,0,0,1,.028-.788c.031-.144.072-.293.117-.443s.11-.3.169-.452c.238-.607.585-1.178.76-1.631.2-.608-.012-.414-.239-.2.393-.527.758-1.329,1.164-2.029.194-.354.408-.668.584-.925a2.4,2.4,0,0,1,.452-.491c.738-.635.433-.059.721-.127.518-.465.392-.539.326-.626s-.06-.2.814-.615c-.179.132-.5.4-.346.334A1.685,1.685,0,0,1,7,2.69c.1-.034.217-.065.335-.093s.241-.056.367-.078l.385-.057c.253-.043.505-.069.727-.118a1.707,1.707,0,0,0,.557-.207c-.152.022-.309.037-.46.068a4.807,4.807,0,0,1,1.893-.53c.6-.072,1.069-.109,1.121-.34l-.157-.174c.27-.022.485-.044.66-.062s.31-.027.419-.04a3.774,3.774,0,0,0,.439-.084A5.023,5.023,0,0,1,14.82.867L14.8.9A7,7,0,0,1,15.923.887,1.172,1.172,0,0,0,16.687.7L16.364.663c1.164-.044,1.256-.012,2.42,0a2.479,2.479,0,0,1,.86-.012c.053-.27,2.7-.128,3.217-.114-.921.041-.485.156-.223.265A2.444,2.444,0,0,1,24.306.716C24.414.38,24.563.022,26.044,0c-.229.051-.589.08-.442.149a1.323,1.323,0,0,0,.612-.032c.148.068-.329.123-.162.239,1-.322,1.73-.025,3.18-.142-.46.1-.064.167.1.282.113-.381,1.985.327,1.434-.163,2.842.29,7.213.011,8.32.325a1.546,1.546,0,0,0,.719.007,7.458,7.458,0,0,1,.883-.09l-.073.166c.355-.066.6-.1.8-.117s.345-.018.5-.021L42.468.6c.116,0,.249-.006.407-.014l.557-.013c-.727.1-.439.224.22.488l.6-.065.606-.041c.054.1.106.2.157.306a2.729,2.729,0,0,1,.736.144c.124.04.247.085.371.133l.35.157a2.871,2.871,0,0,1,1.227.261c.288.1.564.238.8.334a2.086,2.086,0,0,0,.509.2,1.1,1.1,0,0,0,.305.374c.065.053.135.1.207.15s.143.1.214.148c.29.186.552.394.59.643a4.071,4.071,0,0,1,.555.374c-.037-.145-.045-.267,0-.3s.135.016.276.23l.083.085-.008.3c.186.171.35.368.508.543s.272.357.371.5a4.72,4.72,0,0,1-.212-.484c.1.2.19.383.264.566.036.058.071.116.092.156a.644.644,0,0,1-.065-.088,4.308,4.308,0,0,0,.211.437,3.4,3.4,0,0,0,.31.494c.248.854.661,1.717.962,2.666.074.236.149.476.2.718q.041.182.079.365c.022.122.037.244.052.366s.027.245.036.367.005.244,0,.365-.009.243-.02.363-.035.234-.058.35a1.517,1.517,0,0,0-.046-.779c.013.194.031.394.027.584s-.007.381-.014.568c-.012.365-.031.715-.047,1.052a7.914,7.914,0,0,0,.045,1.742l.187-.07c.117,1.086.2,1.925.216,2.8l.215.045c-.041,1.274.383,4-.034,4.786a17.792,17.792,0,0,1,.08,2.484l-.158.186a12.945,12.945,0,0,0,.113,2.088,30.318,30.318,0,0,0,.129,5.36l-.047.016.167,1.7c-.161-.442.112.333.086.844a7.742,7.742,0,0,1-.008,2.054l.023,1.082c-.146-1.2-.233.089-.42.16l.172.689c-.083.28-.161-.443-.187.068a17.7,17.7,0,0,0,.357,2.252,1.356,1.356,0,0,0,.116-.44c-.013-.058-.011-.055,0-.018l.009-.048c0,.023,0,.032,0,.058a1.1,1.1,0,0,0,.081.187c-.016.861.052.544.136.512-.255.939-.07,1.476-.338,2.18.3-.683.044,2.309.383,1.7-.277.732,0,.5-.24.968a12.03,12.03,0,0,0-.407-2.862l-.155.813c-.354-.523.073-1.82-.056-2.3a2.178,2.178,0,0,1-.044,1.081l.252-.221a10.972,10.972,0,0,0-.312-2.894c-.063.776-.183-.937-.349-.372l.05.612c-.024.083-.05.089-.076.049l.193,6.592c.237.151.373,1.545.546,1.145a2.737,2.737,0,0,0-.106,1.42c.171.69.248-.845.331-1.133.123.819.19.818.263.841m-.375-12.979a.24.24,0,0,1,.011.028c.026-.415.051-.628-.011-.028M.538,40.52c-.081-.6-.048-.387-.013.029a.16.16,0,0,1,.013-.029m.607,16.635L1.1,57.4c.067.15.128.3.04-.246m-.125-12.2a7.139,7.139,0,0,0-.226,2.285l.151.106c0-.014,0-.029,0-.044q.037-1.166.074-2.348m.63-5.23c-.038-.493-.132-.889-.124-1.331-.085-.208-.165-.269-.214.673l-.1-.952A4.026,4.026,0,0,0,.864,40.5c.123.393.255.424.382.367.034-.735.05-1.628.285-1.421l-.04.143c.013.45.088.4.159.139m.09-1.01c-.061.124-.131-.11-.2-.285l.094.8a3.579,3.579,0,0,0,.1-.514m.149-24.328-.135.495c.03-.041.063-.088.1-.136v-.013c.01-.118.022-.235.038-.345M2,13.334c.02.065.04.13.062.195-.013-.078-.023-.164-.031-.26v-.009c-.01.025-.021.049-.03.074m.126.453a.771.771,0,0,1-.027-.078c-.02.063-.041.126-.062.189a.5.5,0,0,1,.089-.111M46.365,1.733a.256.256,0,0,1,.1-.039c-.219-.076-.1-.01-.1.039m-3.8-.409c.307.036.612.076.908.125-.027-.152-.044-.29.05-.372-.325.074-.643.157-.958.246m-20.049-.3c.143.034.348.1.587.181h.32l.358-.078-.17.078h.733c0-.054-.082-.1-.292-.141-.075.02-.17.042-.271.065.242-.113.391-.205.212-.25ZM8.659,41.753a4.739,4.739,0,0,0,.205,1.038q.1.289,2.667.577A46.775,46.775,0,0,1,9.89,50.06a1.011,1.011,0,0,1,.1.462q0,.75,5.539,1.615a1.121,1.121,0,0,0,.718-.346,17.941,17.941,0,0,1,1.436-3.346l.782-2.492c.321-1.024.652-2.034.913-3.072a.545.545,0,0,1,.075-.19.479.479,0,0,1,.426-.143c.218.011.434.013.651.013h1.389a21.942,21.942,0,0,1,3.2.068c.583.085,1.136.245,1.727.308a25.916,25.916,0,0,0,3.355.012c1.569-.037,3.137-.094,4.706-.143.592-.018,2.7-.37,3.008.282a3.293,3.293,0,0,1,.111.816q.047.284.1.568.126.7.267,1.4c.118.6.242,1.191.367,1.785a11.687,11.687,0,0,1,.468,2.174q0,2.884,1.129,2.885h.41a25.456,25.456,0,0,1,4.718-1.5q1.847-.663,1.846-1.5a12.489,12.489,0,0,0-.431-2.736c-.157-.682-.379-1.352-.577-2.022-.267-.906-.522-1.8-.709-2.725-.024-.121-.04-.336.075-.423a.2.2,0,0,1,.047-.023,3.6,3.6,0,0,1,.59-.124,4.046,4.046,0,0,0,.575-.177.764.764,0,0,0,.122-.051.689.689,0,0,0,.294-.411,4.174,4.174,0,0,0,.11-.5,2.719,2.719,0,0,0,0-.766c-.063-.514-.218-1.012-.28-1.526a12.661,12.661,0,0,1-.33-1.551q0-2.422-1.436-2.422c-.56.059-1.119.124-1.674.213-.264.042-1.02.321-1.139-.008a1.981,1.981,0,0,1-.058-.551c0-.206-.085-.633.105-.768.489-.348,1.269-.247,1.839-.33a13.091,13.091,0,0,0,2.015-.459,1.534,1.534,0,0,0,.471-.212c.356-.265.185-.834.185-1.231,0-.7-.053-1.4-.115-2.093-.042-.475-.092-.95-.145-1.424a4.581,4.581,0,0,0-.1-1.27.991.991,0,0,0-.558-.608,1.471,1.471,0,0,0-.579-.045l-2.093.115a5.159,5.159,0,0,1-1.872-.021c-.422-.143-.487-.62-.626-.988-.17-.452-.355-.9-.5-1.362q-.347-1.117-.67-2.242c-.287-1-.414-2.032-.66-3.044-.194-.8-.438-1.473-.66-2.387a.406.406,0,0,1,0-.2c.063-.213.379-.32.766-.4.425-.085.889-.247,1.312-.332a7.916,7.916,0,0,0,1.111-.2,1.253,1.253,0,0,0,.973-1.155v-.23a9.2,9.2,0,0,0-.365-2.7c-.3-.973-.235-2.508-1.312-2.977a.79.79,0,0,0-.24-.076,3.643,3.643,0,0,0-1.155.331c-.381.112-.766.211-1.151.3-1.012.243-2.035.441-3.06.621l-8.514.462c-.257,0-4.052-.308-5.232-.231a32.283,32.283,0,0,1-4.03-.147c-.376-.023-.75-.058-1.124-.1a16.97,16.97,0,0,0-1.717-.218h-.1a.823.823,0,0,0-.821.693,25.9,25.9,0,0,1-1.231,5.423v.461q0,.693,3.385.693,2.205.693,2.359.693a5.857,5.857,0,0,0-.41,1.845l-.923,3.462c-.258.966-.508,1.934-.807,2.889-.11.351-.225.7-.351,1.045-.109.3-.18.958-.454,1.15a.945.945,0,0,1-.362.127l-3.687.749a.668.668,0,0,0-.513.287,2.313,2.313,0,0,0-.07.815c0,.252.022.5.037.756.04.664.1,1.327.156,1.99q-.1.606-.1.692.282,1.5.923,1.5a7.929,7.929,0,0,0,1.231-.115l.615.115-.718,2.423a4.438,4.438,0,0,0-1.744-.347h-.1q-.923.087-.923.347-1,0-1.538,5.769m26.718,8.322a2.042,2.042,0,0,0,.068.75.693.693,0,0,0,.422.45,1,1,0,0,0,.556.043,1.609,1.609,0,0,0,.5-.2,1.721,1.721,0,0,0,.514-.573,3.229,3.229,0,0,0,.354-.736c.1-.334.1-.4.086-.459a.2.2,0,0,0-.184-.143c-.126,0-.171.055-.431.527a3.443,3.443,0,0,1-.507.713.741.741,0,0,1-.386.234.36.36,0,0,1-.225-.016.2.2,0,0,1-.081-.128,1.965,1.965,0,0,1-.007-.5c0-.236,0-.463-.012-.676a.7.7,0,0,0-.256-.573.721.721,0,0,0-.478-.141,1.225,1.225,0,0,0-.476.144,12.871,12.871,0,0,1,.734-1.344.614.614,0,0,0,.154-.334.483.483,0,0,0-.088-.254.67.67,0,0,0-.214-.213.459.459,0,0,0-.24-.088.262.262,0,0,0-.237.151.452.452,0,0,0-.03.256,1.045,1.045,0,0,1-.1.332c-.078.2-.316.71-.71,1.514s-.663,1.313-.8,1.519c-.185.278-.231.5-.143.675s.2.259.332.259l.036,0c.121-.015.235-.109.5-.563a6.173,6.173,0,0,1,.5-.8,1.784,1.784,0,0,1,.483-.476.744.744,0,0,1,.308-.13.167.167,0,0,1,.028.007.658.658,0,0,1,.018.139c.008.166.012.384.012.638m-3.576-.76a1.347,1.347,0,0,1-.3.662,2.345,2.345,0,0,1-.621.51,2.612,2.612,0,0,1-.642.281c-.242.074-.363.132-.394.257a.2.2,0,0,0,.055.194.256.256,0,0,0,.184.066,2.149,2.149,0,0,0,.579-.114,2.962,2.962,0,0,0,1.082-.56,1.767,1.767,0,0,0,.648-.872,2.7,2.7,0,0,0,.114-.682,1.624,1.624,0,0,0-.119-.566,1.407,1.407,0,0,0-.558-.637,1.882,1.882,0,0,0-.846-.3,1.892,1.892,0,0,1,.106-.3.322.322,0,0,0,.056-.2.376.376,0,0,0-.1-.238.541.541,0,0,0-.268-.166.8.8,0,0,0-.22-.044.233.233,0,0,0-.183.084.3.3,0,0,0-.044.265.852.852,0,0,1,.02.314c-.011.084-.025.176-.043.276a2.011,2.011,0,0,0-.588.162,3.483,3.483,0,0,0-.394.2,3.273,3.273,0,0,1-.078-.334.779.779,0,0,1-.013-.268.168.168,0,0,0,0-.037c0-.109-.057-.253-.331-.322a.667.667,0,0,0-.366-.02.26.26,0,0,0-.2.247.407.407,0,0,0,.1.242,1.58,1.58,0,0,1,.171.385c.041.136.093.308.158.514a2.64,2.64,0,0,0-.606.856,2.12,2.12,0,0,0-.181.773,2.052,2.052,0,0,0,.039.33.554.554,0,0,0,.3.42.83.83,0,0,0,.37.1,1.121,1.121,0,0,0,.377-.1,1.683,1.683,0,0,0,.442-.255,2.246,2.246,0,0,0,.266-.254.523.523,0,0,0,.223.123.351.351,0,0,0,.338-.085.309.309,0,0,0,.114-.214.33.33,0,0,0-.162-.278.926.926,0,0,1-.119-.087,6.131,6.131,0,0,0,.663-1.489,1.451,1.451,0,0,1,.492.154.979.979,0,0,1,.4.393.905.905,0,0,1,.075.608M26.8,48.268a.874.874,0,0,0-.353-.3.778.778,0,0,0-.286-.074.861.861,0,0,0-.25.058,9.089,9.089,0,0,1-1.072.147.7.7,0,0,0-.3.076c-.46-.015-.8-.037-1.028-.065-.046,0-.088-.005-.125-.005-.347,0-.384.183-.384.261a.364.364,0,0,0,.079.2,1.333,1.333,0,0,0,.3.282.755.755,0,0,0,.442.195l.035,0a2.928,2.928,0,0,0,.374-.064,10.34,10.34,0,0,1,1.071-.126.56.56,0,0,0,.306-.083,7.542,7.542,0,0,1,.986.042.453.453,0,0,0,.136.024.224.224,0,0,0,.236-.228c0-.081-.042-.165-.167-.336m-5.039,1.471a.894.894,0,0,1-.088.407.829.829,0,0,1-.364.314,2.538,2.538,0,0,1-.7.244,3.653,3.653,0,0,1-.706.081c-.273.02-.4.045-.458.152a.212.212,0,0,0-.005.186c.061.123.178.15.7.163h.081a3.715,3.715,0,0,0,1-.139,2.046,2.046,0,0,0,.827-.4,1.115,1.115,0,0,0,.354-.532,1.856,1.856,0,0,0,.066-.465,2.011,2.011,0,0,0-.065-.475.918.918,0,0,0-.5-.547,2.079,2.079,0,0,0-1.075-.19,2.3,2.3,0,0,0-1.1.372,5.252,5.252,0,0,1,.17-.627.677.677,0,0,1,.308-.419.79.79,0,0,1,.611-.072.989.989,0,0,1,.277.123.463.463,0,0,0,.278.109.265.265,0,0,0,.218-.149.679.679,0,0,0,.074-.3.488.488,0,0,0-.09-.359A.939.939,0,0,0,21.228,47l-.022-.008a1.051,1.051,0,0,1-.355-.182,1.367,1.367,0,0,1-.263-.273l-.011-.013c-.115-.133-.2-.21-.309-.21a.219.219,0,0,0-.113.034c-.168.113-.066.33,0,.459a1.6,1.6,0,0,0,.281.416,1.471,1.471,0,0,0-.38.084,1.13,1.13,0,0,0-.666.6,3.876,3.876,0,0,0-.274.843,5.131,5.131,0,0,1-.182.6.735.735,0,0,0-.074.367.409.409,0,0,0,.172.3.415.415,0,0,0,.239.094.362.362,0,0,0,.273-.178,2.224,2.224,0,0,1,.384-.38,1.381,1.381,0,0,1,.534-.307,2,2,0,0,1,.48-.066,2.318,2.318,0,0,1,.431.045.439.439,0,0,1,.281.168.57.57,0,0,1,.106.355M15.993,64.258c0-.416-.205-.542-.632-.767a2.776,2.776,0,0,1-.64-.422c-.028-.025-.74-.683-.74-1.053,0-.147.06-.392.458-.392l.125,0c.659-.016.873-.065.878-.58l.01-1.7c0-.586,0-.981-.148-1.134-.119-.127-.4-.181-.933-.181l-3.105.01c-.866,0-1.1.118-1.1.949,0,.208,0,.415,0,.624s.005.428.005.645a11.189,11.189,0,0,1-.061,1.3,11.669,11.669,0,0,1-.315,1.56,3.173,3.173,0,0,1-.259.645,1.576,1.576,0,0,0-.227.783c0,.2.506.386.8.386.56,0,.874-1.29.993-1.776l.008-.036a3.127,3.127,0,0,0,.047-.381c.038-.443.1-1.113.714-1.113h.251a.494.494,0,0,1,.531.305,5.877,5.877,0,0,0,.686,1.423c.307.463,1.319,1.578,2,1.578a.7.7,0,0,0,.655-.673m6.589-5.22c0-.8-.078-1.01-.626-1.01H18.415c-.78,0-.78.162-.78,1.061v5.077c0,.651.063.765.423.765.492,0,.55-.043.568-.419l.048-1.1a.472.472,0,0,1,.515-.472h1.819a.48.48,0,0,1,.477.494c0,.4-.341.471-.523.511-.252.055-.367.08-.367.411,0,.449.108.529.414.529h1.064c.14,0,.51,0,.51-.755Zm8.563,5.384a4.577,4.577,0,0,0-.355-1.151c-.08-.2-.156-.395-.2-.548a11.33,11.33,0,0,1-.419-3.173.724.724,0,0,1,.38-.721c.115-.071.172-.106.172-.395,0-.467-.135-.7-.4-.7a5.366,5.366,0,0,0-1.035.143,5.809,5.809,0,0,1-1.142.154c-.378,0-.763,0-1.148-.005s-.768-.005-1.145-.005c-.558,0-.675.549-.675,1.01v1.8a6.441,6.441,0,0,1-.626,2.482,3.269,3.269,0,0,0-.4,1.1.435.435,0,0,0,.124.306.624.624,0,0,0,.484.216c.394-.03.541-.293.706-.66a12,12,0,0,0,.828-4.465.5.5,0,0,1,.477-.556c.132,0,.439.062.439.638,0,.773-.008,1.514-.015,2.241-.007.7-.014,1.382-.014,2.068,0,.631.085.734.606.734.459,0,.481-.025.481-.539,0-.773,0-1.521,0-2.268s0-1.494,0-2.266a.522.522,0,0,1,.477-.587c.467,0,.467.444.467.709,0,2.4.419,4.952,1.2,4.952.289,0,.733-.273.733-.509m3.024-4.36c0-.773.343-.935.632-.935l2.41.01c.552,0,.615-.053.615-.519,0-.513-.213-.59-.945-.59H34.046c-.255,0-.339-.247-.379-.366-.061-.18-.1-.3-.414-.3-.6,0-.625.081-.856.706-.042.114-.1.253-.162.407a5.732,5.732,0,0,0-.469,1.474c0,.275.429.457.713.457s.388-.23.514-.747c.076-.312.162-.665.483-.665a.375.375,0,0,1,.382.31.461.461,0,0,1,.007.082c0,.087-.005.171-.013.255,0,.014,0,.029,0,.044-.008.08-.021.158-.036.235l-.011.047a2.435,2.435,0,0,1-.147.453l-.019.042a2.245,2.245,0,0,1-.107.2l-.008.013a1.956,1.956,0,0,1-.488.547c-.008.117-.017.366-.024.77,0,.071,0,.141,0,.211v.012c0,.261-.006.574-.008.945,0,.061,0,.123,0,.184,0,.28,0,.589,0,.93,0,.48.18.611.838.612l3.425-.01c.394,0,.521-.141.521-.581,0-.211-.041-.385-.549-.385H34.82c-.67,0-.67-.575-.67-1,0-.293,0-1.068.5-1.068h2.36c.519,0,.607-.127.607-.509,0-.336-.089-.448-.616-.448H34.782c-.407,0-.613-.28-.613-.831m12.608-1.229c0-.664-.155-.867-.665-.867a.6.6,0,0,0-.646.565c-.019.215-.036.451-.053.7A9.672,9.672,0,0,1,44.76,62.7c-.009.018-.023.05-.041.089-.211.461-.427.874-.744.874a.365.365,0,0,1-.361-.392,1.412,1.412,0,0,1,.261-.649c.056-.1.114-.193.155-.28,0-.424.011-.853.02-1.268.01-.431.019-.877.019-1.314,0-.882-.349-.931-1.209-.964-.112,0-.226-.009-.341-.016-.413-.028-.424-.418-.427-.565a.572.572,0,0,0-.014-.143c-.039-.073-.2-.111-.482-.111a1.242,1.242,0,0,0-.461.047,1.285,1.285,0,0,0-.142.431.4.4,0,0,1-.451.331c-.094,0-.185,0-.277-.005s-.175,0-.264,0c-.486,0-.578.111-.578.7,0,.462.195.508.711.513.284,0,.76.008.76.49a3.914,3.914,0,0,1-1.684,3.257.44.44,0,0,0-.193.448.718.718,0,0,0,.617.754,1.09,1.09,0,0,0,.483-.257l.042-.032a5.3,5.3,0,0,0,1.722-3.146c.028-.15.042-.287.057-.433a4.813,4.813,0,0,1,.09-.611.431.431,0,0,1,.47-.384.409.409,0,0,1,.467.454c0,.543,0,1.076-.01,1.61s-.01,1.062-.01,1.6a1.049,1.049,0,0,0,1.08,1.194,1.4,1.4,0,0,0,1.218-.683,10.311,10.311,0,0,0,1.536-5.415m2.1-4.449a.467.467,0,0,0-.127.028,1.862,1.862,0,0,0-.488-.009q-.276.027-.529.046l-.134.012c-.02-.018-.028-.026-.014-.021s.021,0,.021-.009-.007-.012-.021,0-.021.012-.021,0a.332.332,0,0,1-.17.028,1.509,1.509,0,0,0-.169-.009c0-.037.021-.049.063-.037a.092.092,0,0,0,.106-.037h-.169c.028.024.014.037-.043.037v-.054h-.085v.054c0-.037-.006-.039-.021-.009a.119.119,0,0,1-.011.02s.006,0,.01.007h-.066a.046.046,0,0,0,0-.018h-.085v.018h-.085c-.029,0-.036,0-.021.009s.006.01-.022.01c-.048,0-.089,0-.126,0V54.43a.237.237,0,0,1-.034.024.708.708,0,0,0-.093.012v-.018a2.818,2.818,0,0,1-.3.018H46.2l0,0c-.075,0-.158.006-.253.016a.517.517,0,0,1-.084.011v-.011l-.027.011a.677.677,0,0,1-.08,0,.674.674,0,0,0-.192.009.982.982,0,0,1-.234.009.649.649,0,0,0-.191.01.236.236,0,0,1,.128-.028.318.318,0,0,0,.126-.009h.042a1.637,1.637,0,0,0,.3-.018.515.515,0,0,0-.17-.018v.018a1.273,1.273,0,0,0-.255-.009c-.056.006-.156.015-.3.027h.128a.407.407,0,0,0-.084.009.393.393,0,0,1-.085.009H45.1a1.2,1.2,0,0,1-.212.018A.739.739,0,0,1,44.8,54.5c0-.012.014-.015.042-.009s.041,0,.041-.027c0,.012-.013.015-.041.009a.1.1,0,0,0-.085.027c-.028,0-.156-.012-.382-.036h-.212v-.018h-.212a2.973,2.973,0,0,1-.319.018h0l-.569.018h-.428q-.508.018-1.273.027t-1.7.028c-.2,0-.389.006-.572.018s-.389.018-.615.018q-1.613.037-3.183.064c-.792.014-1.595.025-2.4.036H32.89c-1.353.054-3.033.075-4.844.077s-3.491-.023-4.844-.077h-.007c-.809-.01-1.611-.021-2.4-.036q-1.57-.027-3.183-.064-.338,0-.615-.018c-.183-.012-.375-.018-.572-.018q-.933-.019-1.7-.028t-1.273-.027h-.428l-.569-.018h0a2.966,2.966,0,0,1-.319-.018h-.212v.018h-.212c-.226.024-.354.036-.382.036a.1.1,0,0,0-.085-.027c-.028.006-.041,0-.041-.009,0,.024.013.033.041.027s.043,0,.043.009a.716.716,0,0,1-.084.018,1.2,1.2,0,0,1-.212-.018h.127a.392.392,0,0,1-.085-.009.411.411,0,0,0-.084-.009h.127c-.141-.012-.24-.021-.3-.027a1.273,1.273,0,0,0-.255.009v-.018a.513.513,0,0,0-.17.018,1.634,1.634,0,0,0,.3.018H10.7a.318.318,0,0,0,.126.009.236.236,0,0,1,.128.028.652.652,0,0,0-.191-.01.979.979,0,0,1-.233-.009.676.676,0,0,0-.192-.009.675.675,0,0,1-.08,0l-.026-.011V54.5a.516.516,0,0,1-.084-.011c-.1-.01-.177-.015-.253-.016H9.846a2.809,2.809,0,0,1-.3-.018v.018a.708.708,0,0,0-.093-.012.238.238,0,0,1-.034-.024v.022c-.037,0-.079,0-.126,0-.028,0-.036,0-.022-.01s.007-.009-.021-.009H9.167v-.018H9.082a.038.038,0,0,0,0,.018H9.02s.005,0,.01-.007a.09.09,0,0,1-.011-.02C9,54.373,9,54.375,9,54.412v-.054H8.913v.054c-.057,0-.071-.012-.043-.037H8.7a.092.092,0,0,0,.106.037c.043-.012.064,0,.064.037a1.509,1.509,0,0,0-.169.009.331.331,0,0,1-.17-.028c0,.012-.006.012-.021,0s-.021-.012-.021,0,.007.015.021.009.006,0-.014.021l-.134-.012c-.169-.012-.346-.028-.53-.046a1.862,1.862,0,0,0-.488.009.467.467,0,0,0-.127-.028v.028a2.377,2.377,0,0,1,.276.018l.276.037H7.725l.254.036a.333.333,0,0,0-.126.019q.238.034.551.051v0c0,.012-.007.015-.022.01s-.02,0-.02.009.007.03.02.018.036-.006.065.018v-.018a.908.908,0,0,0,.191.018h.191v-.018l.014,0h.01s0,0,0,0-.007.018.021.018a.084.084,0,0,1,0-.02l.039,0a.162.162,0,0,1,0,.017h.063c.015,0,.022.012.022.037H8.955q.127.018.34.028l.1.005a.1.1,0,0,1-.018,0h.042c.057.036.1.048.127.036v-.018c0,.024.006.036.021.036s.021-.006.021-.018v-.018a.6.6,0,0,0,.233.036,1.942,1.942,0,0,1,.276.019.108.108,0,0,1-.106.018c-.042-.012-.064,0-.064.037a.154.154,0,0,0-.106-.037c-.042,0-.063.012-.063.037l-.043-.037c0,.024.007.037.021.037s.022.012.022.036c-.057.024-.092.018-.106-.018s-.036-.042-.064-.018c.028.012.028.018,0,.018,0-.037-.014-.051-.042-.046a.1.1,0,0,1-.085-.027v.055A2.5,2.5,0,0,1,9,54.858c-.142-.006-.283-.009-.425-.009a.178.178,0,0,1-.064-.009.162.162,0,0,0-.063-.009v.018a.222.222,0,0,1-.128,0,.172.172,0,0,0-.127.018.283.283,0,0,1,.234.028.437.437,0,0,0,.276.045l.041-.055a1.512,1.512,0,0,0,.553.073v-.036a.092.092,0,0,0,.106.036.185.185,0,0,1,.149.037c0,.012-.007.012-.021,0s-.021-.006-.021.018a.125.125,0,0,0,.106.028c.042-.006.064,0,.064.027a.537.537,0,0,1-.149-.018.4.4,0,0,0-.106-.018c-.057,0-.092.009-.106.027l.021-.027a.478.478,0,0,1-.212-.009.32.32,0,0,0-.17-.01c-.085,0-.127-.006-.127-.018l-.042.018H8.742a1.2,1.2,0,0,0-.508,0H7.767c-.085,0-.127-.006-.127-.018s.007-.015.021-.009.021,0,.021-.009a.312.312,0,0,0-.212,0,.449.449,0,0,1-.212.018c0,.024-.007.03-.021.018s-.022-.006-.022.019a.321.321,0,0,0,.127.009.234.234,0,0,1,.127.027v.019q0-.018-.084.018l.084.019a.8.8,0,0,0-.127.036.438.438,0,0,0,.212.027.339.339,0,0,1,.212.046c-.057.024-.091.033-.106.027a.25.25,0,0,0-.106.009v.018a.569.569,0,0,0-.212.073.437.437,0,0,0,.085.027c.028.006.042.028.042.064,0-.024.015-.039.042-.045s.042,0,.042.009-.014.036-.042.036-.042.006-.042.018a.651.651,0,0,0,.106-.027c.014-.006.007,0-.021.027H7.6v-.018c0,.024.014.024.042,0s.028-.012,0,.037c.028,0,.042-.006.042-.019a.47.47,0,0,0,.085.028.509.509,0,0,1,.085.027V55.5h.042c-.027.024-.035.037-.021.037s.021.006.021.018v.036c0,.012.015.018.042.018s.042-.006.042-.018v.037c.057-.024.085-.033.085-.028v.028h.042l.085-.037v.046c0-.006.014-.021.043-.046v.055a.1.1,0,0,0,.084,0c.029-.012.029-.006,0,.018l.085-.018v.018h.043c0,.012.014.024.042.037h.042v.037l.042-.018a.367.367,0,0,1,.106.008c.015.006.036,0,.063-.027,0,.024.015.03.044.019s.042-.012.042,0v.018c.029-.012.049-.012.064,0s.035.006.064-.018v.036a.508.508,0,0,1,.17.019.526.526,0,0,0,.17.018.518.518,0,0,0,.169.009.164.164,0,0,1,.127.028c.056,0,.085-.006.085-.018v0a.277.277,0,0,0,.042.021h.043a.329.329,0,0,1,.1.026H9.846c-.028.006-.042.022-.042.046s.007.024.02.024c-.013,0-.02.007-.02.013.056,0,.084.006.084.018s.015.006.042-.018v.036c0,.012.014.018.043.018l.042-.018h.042v.018l.042-.018v.018l.042-.018v.018a.762.762,0,0,0,.169.018.824.824,0,0,1,.139.014h.035l.038-.033a.071.071,0,0,0,.007.035l.056,0c.043-.024.064-.024.064,0,.028,0,.036,0,.021-.009s-.006-.01.022-.01a.39.39,0,0,0,.075.024c5.457.19,11.935.078,17.276-.1,5.341.173,11.818.286,17.276.1a.4.4,0,0,0,.075-.024c.028,0,.036,0,.021.01s-.006.009.022.009c0-.024.021-.024.064,0l.056,0a.071.071,0,0,0,.007-.035l.038.033h.036a.807.807,0,0,1,.139-.014.762.762,0,0,0,.169-.018v-.018l.042.018v-.018l.042.018v-.018h.042l.042.018c.029,0,.042-.006.042-.018v-.036c.028.024.043.03.043.018s.028-.018.084-.018c0-.006-.008-.01-.02-.013.013,0,.02-.007.02-.024s-.014-.039-.042-.046h-.015a.329.329,0,0,1,.1-.026h.042a.32.32,0,0,0,.042-.021v0c0,.012.029.018.085.018a.164.164,0,0,1,.127-.028.518.518,0,0,0,.169-.009.526.526,0,0,0,.17-.018.506.506,0,0,1,.17-.019v-.036c.029.024.049.03.064.018s.035-.012.064,0v-.018c0-.012.014-.012.042,0s.043.006.043-.019c.028.024.049.033.063.027a.375.375,0,0,1,.106-.008l.042.018V55.7H47.6c.028-.012.042-.024.042-.037h.042v-.018l.085.018c-.029-.024-.029-.03,0-.018a.1.1,0,0,0,.084,0v-.055c.028.024.042.04.042.046v-.046l.085.037h.042V55.6c0-.006.028,0,.085.028v-.037c0,.012.014.018.042.018s.042-.006.042-.018v-.036c0-.012.006-.018.021-.018s.006-.012-.021-.037h.042v.018a.509.509,0,0,1,.085-.027.457.457,0,0,0,.085-.028c0,.013.014.019.042.019q-.041-.072,0-.037c.029.024.042.024.042,0v.018h.043c-.029-.024-.036-.033-.021-.027a.651.651,0,0,0,.106.027c0-.012-.015-.018-.042-.018s-.042-.012-.042-.036.014-.015.042-.009.042.021.042.045c0-.036.014-.058.042-.064a.437.437,0,0,0,.085-.027.569.569,0,0,0-.212-.073v-.018a.25.25,0,0,0-.106-.009c-.015.006-.049,0-.106-.027a.339.339,0,0,1,.212-.046.438.438,0,0,0,.212-.027.815.815,0,0,0-.127-.036l.084-.019q-.084-.036-.084-.018v-.019a.233.233,0,0,1,.127-.027.321.321,0,0,0,.127-.009c0-.024-.006-.031-.022-.019s-.021.006-.021-.018a.449.449,0,0,1-.212-.018.312.312,0,0,0-.212,0c0,.012.006.015.021.009s.021,0,.021.009-.042.018-.127.018h-.467a1.2,1.2,0,0,0-.509,0h-.043l-.042-.018c0,.012-.042.018-.127.018a.32.32,0,0,0-.17.01.478.478,0,0,1-.212.009c.029.036.035.045.021.027s-.049-.027-.106-.027a.4.4,0,0,0-.106.018.54.54,0,0,1-.149.018c0-.024.021-.033.064-.027a.125.125,0,0,0,.106-.028c0-.024-.006-.03-.021-.018s-.021.012-.021,0a.185.185,0,0,1,.149-.037.092.092,0,0,0,.106-.036v.036a1.508,1.508,0,0,0,.552-.073l.042.055a.438.438,0,0,0,.276-.045.282.282,0,0,1,.233-.028.17.17,0,0,0-.127-.018.222.222,0,0,1-.128,0v-.018a.162.162,0,0,0-.063.009.178.178,0,0,1-.064.009c-.142,0-.283,0-.425.009a2.5,2.5,0,0,1-.466-.027v-.055a.1.1,0,0,1-.085.027c-.028-.006-.042.009-.042.046-.028,0-.028-.006,0-.018-.028-.024-.049-.019-.064.018s-.049.042-.106.018c0-.024.007-.036.022-.036s.021-.013.021-.037l-.042.037c0-.024-.021-.037-.064-.037a.155.155,0,0,0-.106.037c0-.037-.021-.048-.064-.037a.107.107,0,0,1-.106-.018,1.939,1.939,0,0,1,.276-.019.6.6,0,0,0,.234-.036v.018c0,.012.007.018.021.018s.021-.012.021-.036v.018c.028.012.071,0,.127-.036h.042a.1.1,0,0,1-.018,0l.1-.005q.213-.01.34-.028h-.042c0-.024.007-.037.022-.037h.063a.163.163,0,0,1,0-.017l.039,0a.123.123,0,0,1,0,.02c.028,0,.035-.006.021-.018s0,0,0,0h.01l.014,0v.018h.191a.908.908,0,0,0,.191-.018v.018c.028-.024.049-.03.064-.018s.021.006.021-.018-.007-.015-.021-.009-.022,0-.022-.01v0q.313-.018.552-.051a.338.338,0,0,0-.127-.019l.254-.036h-.042l.276-.037a2.369,2.369,0,0,1,.276-.018ZM52.755,9.7c.354.567.638,1.116.829,1.43l-.147-.606c-.052-.2-.115-.4-.172-.6.031-.109.056-.219.079-.33a4.338,4.338,0,0,0-1.136-1.784A11.348,11.348,0,0,1,52.755,9.7m.551,9c.147-.432.38-2.282.4-2.414a.633.633,0,0,0-.573-.23l.038,1.287.325.152-.32.031.038,1.312a.253.253,0,0,0,.093-.139m.228,4.815a5.126,5.126,0,0,0-.211-.9l.032,1.082c.046-.1.117-.219.179-.179m.307,13.449c.158-.185.405.6.607-.229.2-2.085-.476-1.7-.488-4.212-.057-.231.283.52.156-.813a9.038,9.038,0,0,0-.6-2.489l.15,5.146A2.165,2.165,0,0,1,53.714,34a5.077,5.077,0,0,0,.11,1.466l.081-.909a19.862,19.862,0,0,0-.064,2.408m.25,11.46-.015-.105,0,.1a.014.014,0,0,0,.012,0m0,.277.041,1.406a3.741,3.741,0,0,0-.041-1.406m1.03,1.053.025,1.662-.028-.115.03.337a6.107,6.107,0,0,1,.192-1.17c-.1-.561-.163-.676-.22-.714m.175,3.491,0,0c-.021.07-.034.092-.023.014a.144.144,0,0,1,0-.033.2.2,0,0,1-.071-.072c.024-.463.045-.073.071.072.009,0,.018.018.028.019l0-.006-.147-1.6c-.015.339,0,.763.045,1.515-.189-.261-.29-1.07-.472-.571.041.99.172.692.268,1.282-.092-1.6.114.458.184-.7.04.314.058.6.073.863.014-.288.033-.566.059-.828,0,.014-.007.024-.01.037Zm-.88,7.959c.02-.048.032-.045.046-.047-.014-.106-.026-.147-.046.047m.79-11.69.2.174-.293-.766Zm-.66-19.471a10.294,10.294,0,0,0,.074-1.23c-.088.595-.231,1.076-.074,1.23m.032-2.652c-.016.087-.022.173-.036.261a10,10,0,0,1,.078,1.161,3.323,3.323,0,0,0-.042-1.422M55,40.814c.023.367.022.058,0,0m-.763,1.652a.25.25,0,0,1,.093.145c-.023-.078-.051-.137-.093-.145m.7-1.1c.019-.138.033-.3.041-.47-.012.076-.025.219-.041.47m.084-.075c0,.127-.006.226-.008.321.032.046.05,0,.008-.321M55,40.814c-.005-.108-.012-.26-.024-.512.009.21.006.406,0,.6.01-.072.02-.1.026-.083M55.2,44.53l.008.085a.656.656,0,0,0-.008-.085m-.114.008c.04-.016.092-.128.114-.008l-.068-.71a2.789,2.789,0,0,1-.046.718m-.531.824c-.169.065-.1.564-.048,1.121,0-.033,0-.065,0-.1.244.161.148-.432.052-1.022m-.02,1.766c.1.064.014-.209-.019-.515.013.172.022.347.019.515m.295-7.519c-.037.265.223.162.158.313.226.292-.315-1.759-.158-.313m-.8,5.7L54,45.822l.205-.2Zm0-3.892L54,42.308c.035-.014.059.1.079.238a4.789,4.789,0,0,0-.047-1.13m.047,1.13a3.833,3.833,0,0,0,.056.717c-.006-.154-.023-.487-.056-.717m-.448-11.152c.057.232.1.592.161.442l-.089-.972c-.075-.1-.112.168-.073.529m.921-1.134c0-.033,0-.075,0-.12a1.026,1.026,0,0,0-.042.121Z" fill="#bd202e"/>
      </g>
    </g>
  </g>
</svg>
