<svg width="62" height="22" viewBox="0 0 62 22" fill="none" xmlns="http://www.w3.org/2000/svg">
<path d="M0.655273 10.7052C0.655273 8.68541 1.09648 6.88134 1.97891 5.29298C2.86133 3.68501 4.06731 2.43982 5.59684 1.55739C7.12637 0.655362 8.83239 0.204346 10.7149 0.204346C13.0092 0.204346 14.9701 0.753409 16.5977 1.85153C18.2449 2.93005 19.4411 4.45958 20.1862 6.44013H17.7743C17.186 5.04786 16.284 3.95954 15.0682 3.17517C13.872 2.39079 12.4209 1.9986 10.7149 1.9986C9.20497 1.9986 7.84212 2.35157 6.62633 3.05751C5.43016 3.76345 4.48891 4.78314 3.80258 6.11658C3.11625 7.43041 2.77309 8.95994 2.77309 10.7052C2.77309 12.4504 3.11625 13.9799 3.80258 15.2938C4.48891 16.6076 5.43016 17.6175 6.62633 18.3234C7.84212 19.0294 9.20497 19.3823 10.7149 19.3823C12.4209 19.3823 13.872 18.9999 15.0682 18.2352C16.284 17.4508 17.186 16.3723 17.7743 14.9996H20.1862C19.4411 16.9606 18.2449 18.4803 16.5977 19.5588C14.9505 20.6373 12.9896 21.1766 10.7149 21.1766C8.83239 21.1766 7.12637 20.7354 5.59684 19.853C4.06731 18.9509 2.86133 17.7057 1.97891 16.1174C1.09648 14.529 0.655273 12.7249 0.655273 10.7052Z" fill="#524342"/>
<path d="M44.3789 0.704384V21.0001H42.3199V4.79294L35.084 21.0001H33.5839L26.348 4.85177V21.0001H24.289V0.704384H26.4657L34.3192 18.294L42.1728 0.704384H44.3789Z" fill="#524342"/>
<path d="M55.2855 21.206C53.9325 21.206 52.7363 20.9707 51.697 20.5001C50.6773 20.0294 49.8733 19.3725 49.285 18.5293C48.6967 17.6861 48.383 16.7449 48.3438 15.7056H50.5204C50.6185 16.7056 51.0597 17.5881 51.8441 18.3528C52.6284 19.098 53.7756 19.4706 55.2855 19.4706C56.6778 19.4706 57.7759 19.1176 58.5799 18.4117C59.4035 17.6861 59.8153 16.7743 59.8153 15.6762C59.8153 14.7937 59.5898 14.0878 59.1387 13.5583C58.6877 13.0093 58.1289 12.6073 57.4621 12.3524C56.7954 12.0778 55.8738 11.7837 54.6972 11.4699C53.3246 11.0974 52.2362 10.7346 51.4323 10.3816C50.6283 10.0287 49.9419 9.47959 49.3733 8.73443C48.8046 7.98927 48.5203 6.97939 48.5203 5.70478C48.5203 4.64587 48.7948 3.70462 49.3439 2.88103C49.8929 2.03782 50.6675 1.38091 51.6676 0.910283C52.6677 0.439658 53.8148 0.204346 55.109 0.204346C57.0111 0.204346 58.5407 0.674971 59.6976 1.61622C60.8742 2.53786 61.5507 3.73404 61.7272 5.20474H59.4917C59.3545 4.36154 58.8936 3.61638 58.1093 2.96927C57.3249 2.30255 56.266 1.96919 54.9325 1.96919C53.6971 1.96919 52.6676 2.30255 51.8441 2.96927C51.0205 3.61638 50.6087 4.50861 50.6087 5.64595C50.6087 6.50876 50.8342 7.2049 51.2852 7.73435C51.7362 8.26381 52.2951 8.6658 52.9618 8.94033C53.6481 9.21486 54.5698 9.509 55.7267 9.82275C57.0602 10.1953 58.1387 10.5679 58.9623 10.9405C59.7859 11.2935 60.482 11.8425 61.0507 12.5877C61.6193 13.3328 61.9037 14.3329 61.9037 15.5879C61.9037 16.5488 61.6488 17.4606 61.1389 18.3234C60.6291 19.1862 59.8741 19.8824 58.874 20.4118C57.8739 20.9413 56.6778 21.206 55.2855 21.206Z" fill="#524342"/>
</svg>
