<svg width="16" height="12" viewBox="0 0 16 12" fill="none" xmlns="http://www.w3.org/2000/svg">
<path fill-rule="evenodd" clip-rule="evenodd" d="M15 5.00025H3.41401L6.70701 1.70725C7.09801 1.31625 7.09801 0.68425 6.70701 0.29325C6.31601 -0.09775 5.68401 -0.09775 5.29301 0.29325L0.293006 5.29325C-0.0979941 5.68425 -0.0979941 6.31625 0.293006 6.70725L5.29301 11.7072C5.48801 11.9022 5.74401 12.0002 6.00001 12.0002C6.25601 12.0002 6.51201 11.9022 6.70701 11.7072C7.09801 11.3162 7.09801 10.6842 6.70701 10.2933L3.41401 7.00025H15C15.553 7.00025 16 6.55225 16 6.00025C16 5.44825 15.553 5.00025 15 5.00025Z" fill="#5C5F62"/>
</svg>
