<svg width="16" height="14" viewBox="0 0 16 14" fill="none" xmlns="http://www.w3.org/2000/svg">
<path d="M14.5812 6.23125V12.2125C14.5812 12.5875 14.4499 12.9063 14.1874 13.1688C13.9249 13.4313 13.5999 13.5625 13.2124 13.5625H2.80615C2.43115 13.5625 2.1124 13.4313 1.8499 13.1688C1.5874 12.9063 1.45615 12.5875 1.45615 12.2125V6.2125C1.14365 5.9625 0.912402 5.6405 0.762402 5.2465C0.612402 4.853 0.612402 4.425 0.762402 3.9625L1.5124 1.4875C1.6124 1.175 1.7844 0.92175 2.0284 0.72775C2.2719 0.53425 2.55615 0.4375 2.88115 0.4375H13.1187C13.4562 0.4375 13.7437 0.53125 13.9812 0.71875C14.2187 0.90625 14.3874 1.15625 14.4874 1.46875L15.2562 3.9625C15.4062 4.425 15.4062 4.853 15.2562 5.2465C15.1062 5.6405 14.8812 5.96875 14.5812 6.23125ZM9.66865 5.6875C10.0687 5.6875 10.3719 5.5625 10.5784 5.3125C10.7844 5.0625 10.8687 4.79375 10.8312 4.50625L10.3812 1.5625H8.58115V4.525C8.58115 4.8375 8.6874 5.10925 8.8999 5.34025C9.1124 5.57175 9.36865 5.6875 9.66865 5.6875ZM6.29365 5.6875C6.63115 5.6875 6.9094 5.57175 7.1284 5.34025C7.3469 5.10925 7.45615 4.8375 7.45615 4.525V1.5625H5.6374L5.1874 4.525C5.1499 4.8 5.2344 5.0625 5.4409 5.3125C5.6469 5.5625 5.93115 5.6875 6.29365 5.6875ZM2.95615 5.6875C3.23115 5.6875 3.46865 5.59075 3.66865 5.39725C3.86865 5.20325 3.99365 4.9625 4.04365 4.675L4.4749 1.5625H2.88115C2.80615 1.5625 2.74365 1.58125 2.69365 1.61875C2.64365 1.65625 2.60615 1.7125 2.58115 1.7875L1.86865 4.225C1.76865 4.5375 1.8124 4.85925 1.9999 5.19025C2.1874 5.52175 2.50615 5.6875 2.95615 5.6875ZM13.0812 5.6875C13.4812 5.6875 13.7907 5.52825 14.0097 5.20975C14.2282 4.89075 14.2812 4.5625 14.1687 4.225L13.3999 1.76875C13.3749 1.69375 13.3404 1.6405 13.2964 1.609C13.2529 1.578 13.1874 1.5625 13.0999 1.5625H11.5437L11.9937 4.675C12.0312 4.9625 12.1499 5.20325 12.3499 5.39725C12.5499 5.59075 12.7937 5.6875 13.0812 5.6875ZM2.80615 12.4375H13.2124C13.2874 12.4375 13.3469 12.4157 13.3909 12.3722C13.4344 12.3282 13.4562 12.275 13.4562 12.2125V6.7375C13.3687 6.775 13.2969 6.797 13.2409 6.8035C13.1844 6.8095 13.1312 6.8125 13.0812 6.8125C12.7437 6.8125 12.4467 6.75 12.1902 6.625C11.9342 6.5 11.6812 6.30625 11.4312 6.04375C11.2312 6.28125 10.9874 6.46875 10.6999 6.60625C10.4124 6.74375 10.0812 6.8125 9.70615 6.8125C9.39365 6.8125 9.0969 6.747 8.8159 6.616C8.5344 6.4845 8.26865 6.29375 8.01865 6.04375C7.78115 6.29375 7.51565 6.4845 7.22215 6.616C6.92815 6.747 6.63115 6.8125 6.33115 6.8125C5.99365 6.8125 5.6779 6.75 5.3839 6.625C5.0904 6.5 4.83115 6.30625 4.60615 6.04375C4.28115 6.35625 3.9874 6.5625 3.7249 6.6625C3.4624 6.7625 3.20615 6.8125 2.95615 6.8125C2.89365 6.8125 2.83115 6.8095 2.76865 6.8035C2.70615 6.797 2.64365 6.775 2.58115 6.7375V12.2125C2.58115 12.275 2.60315 12.3282 2.64715 12.3722C2.69065 12.4157 2.74365 12.4375 2.80615 12.4375Z" fill="#524342"/>
</svg>
