<svg width="18" height="18" viewBox="0 0 18 18" fill="none" xmlns="http://www.w3.org/2000/svg">
<mask id="mask0_138_62139" style="mask-type:alpha" maskUnits="userSpaceOnUse" x="0" y="0" width="18" height="18">
<rect y="6.10352e-05" width="18" height="18" fill="#D9D9D9"/>
</mask>
<g mask="url(#mask0_138_62139)">
<path d="M15 15.7501H3.75C3.3375 15.7501 2.98425 15.6033 2.69025 15.3098C2.39675 15.0158 2.25 14.6626 2.25 14.2501V3.75006C2.25 3.33756 2.39675 2.98431 2.69025 2.69031C2.98425 2.39681 3.3375 2.25006 3.75 2.25006H15C15.4125 2.25006 15.7657 2.39681 16.0597 2.69031C16.3533 2.98431 16.5 3.33756 16.5 3.75006V14.2501C16.5 14.6626 16.3533 15.0158 16.0597 15.3098C15.7657 15.6033 15.4125 15.7501 15 15.7501ZM3.75 6.00006H15V3.75006H3.75V6.00006ZM6 7.50006H3.75V14.2501H6V7.50006ZM12.75 7.50006V14.2501H15V7.50006H12.75ZM11.25 7.50006H7.5V14.2501H11.25V7.50006Z" fill="white"/>
</g>
</svg>
