<svg width="18" height="10" viewBox="0 0 18 10" fill="none" xmlns="http://www.w3.org/2000/svg">
<path d="M5.25 6.5C4.8375 6.5 4.4845 6.353 4.191 6.059C3.897 5.7655 3.75 5.4125 3.75 5C3.75 4.5875 3.897 4.23425 4.191 3.94025C4.4845 3.64675 4.8375 3.5 5.25 3.5C5.6625 3.5 6.0155 3.64675 6.309 3.94025C6.603 4.23425 6.75 4.5875 6.75 5C6.75 5.4125 6.603 5.7655 6.309 6.059C6.0155 6.353 5.6625 6.5 5.25 6.5ZM5.25 9.5C4 9.5 2.9375 9.0625 2.0625 8.1875C1.1875 7.3125 0.75 6.25 0.75 5C0.75 3.75 1.1875 2.6875 2.0625 1.8125C2.9375 0.9375 4 0.5 5.25 0.5C6.0875 0.5 6.847 0.70625 7.5285 1.11875C8.2095 1.53125 8.75 2.075 9.15 2.75H15.75L18 5L14.625 8.375L13.125 7.25L11.625 8.375L10.0312 7.25H9.15C8.75 7.925 8.2095 8.46875 7.5285 8.88125C6.847 9.29375 6.0875 9.5 5.25 9.5ZM5.25 8C5.95 8 6.56575 7.7875 7.09725 7.3625C7.62825 6.9375 7.98125 6.4 8.15625 5.75H10.5L11.5875 6.51875L13.125 5.375L14.4562 6.40625L15.8625 5L15.1125 4.25H8.15625C7.98125 3.6 7.62825 3.0625 7.09725 2.6375C6.56575 2.2125 5.95 2 5.25 2C4.425 2 3.71875 2.29375 3.13125 2.88125C2.54375 3.46875 2.25 4.175 2.25 5C2.25 5.825 2.54375 6.53125 3.13125 7.11875C3.71875 7.70625 4.425 8 5.25 8Z" fill="#755B00"/>
</svg>
