<svg width="122" height="41" viewBox="0 0 122 41" fill="none" xmlns="http://www.w3.org/2000/svg">
<path d="M6.50705 13.6481V20.1803H15.9151V26.1374H6.50705V36.6546H0.426758V7.89648H18.9141V13.6481H6.50705Z" fill="url(#paint0_linear_34_40284)"/>
<path d="M29.883 36.6546H23.7205V7.89648H29.883V36.6546Z" fill="url(#paint1_linear_34_40284)"/>
<path d="M50.9775 22.2755L60.4266 36.6546H53.4014L47.4854 27.6163L41.5284 36.6546H34.5032L43.9523 22.2755L34.5032 7.89648H41.5284L47.4854 16.9348L53.4425 7.89648H60.4266L50.9775 22.2755Z" fill="url(#paint2_linear_34_40284)"/>
<path d="M80.7871 36.6546L71.2147 24.7405V36.6546H65.0523V7.89648H71.2147V19.9338L80.9103 7.89648H88.3053L76.9664 22.029L88.6339 36.6546H80.7871Z" fill="url(#paint3_linear_34_40284)"/>
<g clip-path="url(#clip0_34_40284)">
<mask id="mask0_34_40284" style="mask-type:alpha" maskUnits="userSpaceOnUse" x="84" y="3" width="38" height="38">
<rect x="94.1571" y="7.00855" width="24.8076" height="24.8076" rx="12.4038" transform="rotate(14.2128 94.1571 7.00855)" stroke="black" stroke-width="5.55394"/>
</mask>
<g mask="url(#mask0_34_40284)">
<rect x="92.147" y="3.63477" width="30.3615" height="30.3615" rx="15.1808" transform="rotate(14.2128 92.147 3.63477)" fill="url(#paint4_linear_34_40284)"/>
</g>
<g filter="url(#filter0_dd_34_40284)">
<path fill-rule="evenodd" clip-rule="evenodd" d="M104.574 18.6768C102.887 16.9526 101.9 14.7759 101.64 12.5923C102.129 14.6392 103.216 16.6699 104.866 18.3566C106.516 20.0433 108.471 21.1224 110.42 21.5674C108.35 21.3697 106.261 20.4011 104.574 18.677M95.1185 35.2878L101.811 27.4834C102.815 26.4034 103.746 25.4722 104.561 24.7653C107.3 22.3905 109.667 23.4312 112.789 22.4798C115.741 21.5801 119.569 17.2331 119.39 13.2588C119.385 13.1333 119.319 13.0218 119.212 12.9554C119.104 12.8889 118.986 12.8862 118.889 12.9483C114.193 15.9519 112.76 19.074 108.81 12.6472C105.442 7.16729 108.742 6.68269 113.296 3.76997C113.389 3.71024 113.436 3.60737 113.427 3.48605C113.417 3.36495 113.353 3.25959 113.25 3.19544C108.79 0.423279 101.273 2.95781 100.574 10.1078C100.301 12.892 100.28 16.0166 98.6915 19.0098C98.3264 19.6971 97.4929 20.821 96.3778 22.1974L89.6588 30.0324M89.6588 30.0324C90.104 30.7956 90.6272 31.5265 91.2271 32.2105L92.7718 30.4091L99.5577 22.4957C99.9384 22.0517 100.629 22.0578 101.093 22.5091C101.557 22.9606 101.625 23.693 101.245 24.1369L94.4685 32.0389L92.9217 33.8428C93.6222 34.4109 94.3589 34.8925 95.1185 35.2878" fill="url(#paint5_linear_34_40284)"/>
</g>
</g>
<defs>
<filter id="filter0_dd_34_40284" x="84.475" y="-0.864443" width="40.1051" height="43.5568" filterUnits="userSpaceOnUse" color-interpolation-filters="sRGB">
<feFlood flood-opacity="0" result="BackgroundImageFix"/>
<feColorMatrix in="SourceAlpha" type="matrix" values="0 0 0 0 0 0 0 0 0 0 0 0 0 0 0 0 0 0 127 0" result="hardAlpha"/>
<feOffset dy="0.740525"/>
<feGaussianBlur stdDeviation="0.555394"/>
<feColorMatrix type="matrix" values="0 0 0 0 0 0 0 0 0 0 0 0 0 0 0 0 0 0 0.3 0"/>
<feBlend mode="normal" in2="BackgroundImageFix" result="effect1_dropShadow_34_40284"/>
<feColorMatrix in="SourceAlpha" type="matrix" values="0 0 0 0 0 0 0 0 0 0 0 0 0 0 0 0 0 0 127 0" result="hardAlpha"/>
<feMorphology radius="1.48105" operator="dilate" in="SourceAlpha" result="effect2_dropShadow_34_40284"/>
<feOffset dy="2.22157"/>
<feGaussianBlur stdDeviation="1.85131"/>
<feColorMatrix type="matrix" values="0 0 0 0 0 0 0 0 0 0 0 0 0 0 0 0 0 0 0.15 0"/>
<feBlend mode="normal" in2="effect1_dropShadow_34_40284" result="effect2_dropShadow_34_40284"/>
<feBlend mode="normal" in="SourceGraphic" in2="effect2_dropShadow_34_40284" result="shape"/>
</filter>
<linearGradient id="paint0_linear_34_40284" x1="-0.88369" y1="20.7333" x2="103.322" y2="20.7333" gradientUnits="userSpaceOnUse">
<stop stop-color="#AF212E"/>
<stop offset="1" stop-color="#8E1722"/>
</linearGradient>
<linearGradient id="paint1_linear_34_40284" x1="-0.88369" y1="20.7333" x2="103.322" y2="20.7333" gradientUnits="userSpaceOnUse">
<stop stop-color="#AF212E"/>
<stop offset="1" stop-color="#8E1722"/>
</linearGradient>
<linearGradient id="paint2_linear_34_40284" x1="-0.88369" y1="20.7333" x2="103.322" y2="20.7333" gradientUnits="userSpaceOnUse">
<stop stop-color="#AF212E"/>
<stop offset="1" stop-color="#8E1722"/>
</linearGradient>
<linearGradient id="paint3_linear_34_40284" x1="-0.88369" y1="20.7333" x2="103.322" y2="20.7333" gradientUnits="userSpaceOnUse">
<stop stop-color="#AF212E"/>
<stop offset="1" stop-color="#8E1722"/>
</linearGradient>
<linearGradient id="paint4_linear_34_40284" x1="125.471" y1="5.85634" x2="83.4458" y2="28.8126" gradientUnits="userSpaceOnUse">
<stop stop-color="#AF212E"/>
<stop offset="1" stop-color="#6C1B22"/>
</linearGradient>
<linearGradient id="paint5_linear_34_40284" x1="107.41" y1="33.8562" x2="104.802" y2="-8.6283" gradientUnits="userSpaceOnUse">
<stop stop-color="#DFDFDF"/>
<stop offset="1" stop-color="white"/>
</linearGradient>
<clipPath id="clip0_34_40284">
<path d="M92.8838 -2.28906L124.111 5.61998L119.156 25.1816C116.972 33.8046 108.211 39.0245 99.5882 36.8405C90.9651 34.6565 85.7453 25.8956 87.9293 17.2726L92.8838 -2.28906Z" fill="white"/>
</clipPath>
</defs>
</svg>
