<svg width="5" height="16" viewBox="0 0 5 16" fill="none" xmlns="http://www.w3.org/2000/svg">
<path d="M2.09799 16C1.55878 16 1.09734 15.8043 0.713678 15.413C0.329364 15.021 0.137207 14.55 0.137207 14C0.137207 13.45 0.329364 12.979 0.713678 12.587C1.09734 12.1957 1.55878 12 2.09799 12C2.63721 12 3.09897 12.1957 3.48329 12.587C3.86695 12.979 4.05878 13.45 4.05878 14C4.05878 14.55 3.86695 15.021 3.48329 15.413C3.09897 15.8043 2.63721 16 2.09799 16ZM2.09799 10C1.55878 10 1.09734 9.804 0.713678 9.412C0.329364 9.02067 0.137207 8.55 0.137207 8C0.137207 7.45 0.329364 6.979 0.713678 6.587C1.09734 6.19567 1.55878 6 2.09799 6C2.63721 6 3.09897 6.19567 3.48329 6.587C3.86695 6.979 4.05878 7.45 4.05878 8C4.05878 8.55 3.86695 9.02067 3.48329 9.412C3.09897 9.804 2.63721 10 2.09799 10ZM2.09799 4C1.55878 4 1.09734 3.804 0.713678 3.412C0.329364 3.02067 0.137207 2.55 0.137207 2C0.137207 1.45 0.329364 0.979333 0.713678 0.588C1.09734 0.196 1.55878 0 2.09799 0C2.63721 0 3.09897 0.196 3.48329 0.588C3.86695 0.979333 4.05878 1.45 4.05878 2C4.05878 2.55 3.86695 3.02067 3.48329 3.412C3.09897 3.804 2.63721 4 2.09799 4Z" fill="#C8C8C8"/>
</svg>
