<svg width="16" height="16" viewBox="0 0 16 16" fill="none" xmlns="http://www.w3.org/2000/svg">
<path d="M5.75 8.37506H6.5V6.87506H7.25C7.4625 6.87506 7.64075 6.80306 7.78475 6.65906C7.92825 6.51556 8 6.33756 8 6.12506V5.37506C8 5.16256 7.92825 4.98431 7.78475 4.84031C7.64075 4.69681 7.4625 4.62506 7.25 4.62506H5.75V8.37506ZM6.5 6.12506V5.37506H7.25V6.12506H6.5ZM8.75 8.37506H10.25C10.4625 8.37506 10.6407 8.30306 10.7847 8.15906C10.9283 8.01556 11 7.83756 11 7.62506V5.37506C11 5.16256 10.9283 4.98431 10.7847 4.84031C10.6407 4.69681 10.4625 4.62506 10.25 4.62506H8.75V8.37506ZM9.5 7.62506V5.37506H10.25V7.62506H9.5ZM11.75 8.37506H12.5V6.87506H13.25V6.12506H12.5V5.37506H13.25V4.62506H11.75V8.37506ZM5 12.5001C4.5875 12.5001 4.2345 12.3533 3.941 12.0598C3.647 11.7658 3.5 11.4126 3.5 11.0001V2.00006C3.5 1.58756 3.647 1.23431 3.941 0.940311C4.2345 0.646811 4.5875 0.500061 5 0.500061H14C14.4125 0.500061 14.7657 0.646811 15.0597 0.940311C15.3533 1.23431 15.5 1.58756 15.5 2.00006V11.0001C15.5 11.4126 15.3533 11.7658 15.0597 12.0598C14.7657 12.3533 14.4125 12.5001 14 12.5001H5ZM5 11.0001H14V2.00006H5V11.0001ZM2 15.5001C1.5875 15.5001 1.2345 15.3533 0.941 15.0598C0.647 14.7658 0.5 14.4126 0.5 14.0001V3.50006H2V14.0001H12.5V15.5001H2Z" fill="white"/>
</svg>
