<svg width="16" height="16" viewBox="0 0 16 16" fill="none" xmlns="http://www.w3.org/2000/svg">
<path d="M5.9374 15.5L5.6374 13.1C5.4749 13.0375 5.3219 12.9625 5.1784 12.875C5.0344 12.7875 4.89365 12.6938 4.75615 12.5938L2.5249 13.5312L0.462402 9.96875L2.39365 8.50625C2.38115 8.41875 2.3749 8.33425 2.3749 8.25275V7.7465C2.3749 7.6655 2.38115 7.58125 2.39365 7.49375L0.462402 6.03125L2.5249 2.46875L4.75615 3.40625C4.89365 3.30625 5.0374 3.2125 5.1874 3.125C5.3374 3.0375 5.4874 2.9625 5.6374 2.9L5.9374 0.5H10.0624L10.3624 2.9C10.5249 2.9625 10.6782 3.0375 10.8222 3.125C10.9657 3.2125 11.1062 3.30625 11.2437 3.40625L13.4749 2.46875L15.5374 6.03125L13.6062 7.49375C13.6187 7.58125 13.6249 7.6655 13.6249 7.7465V8.25275C13.6249 8.33425 13.6124 8.41875 13.5874 8.50625L15.5187 9.96875L13.4562 13.5312L11.2437 12.5938C11.1062 12.6938 10.9624 12.7875 10.8124 12.875C10.6624 12.9625 10.5124 13.0375 10.3624 13.1L10.0624 15.5H5.9374ZM8.0374 10.625C8.7624 10.625 9.38115 10.3688 9.89365 9.85625C10.4062 9.34375 10.6624 8.725 10.6624 8C10.6624 7.275 10.4062 6.65625 9.89365 6.14375C9.38115 5.63125 8.7624 5.375 8.0374 5.375C7.2999 5.375 6.6779 5.63125 6.1714 6.14375C5.6654 6.65625 5.4124 7.275 5.4124 8C5.4124 8.725 5.6654 9.34375 6.1714 9.85625C6.6779 10.3688 7.2999 10.625 8.0374 10.625ZM8.0374 9.125C7.7249 9.125 7.4594 9.0155 7.2409 8.7965C7.0219 8.578 6.9124 8.3125 6.9124 8C6.9124 7.6875 7.0219 7.422 7.2409 7.2035C7.4594 6.9845 7.7249 6.875 8.0374 6.875C8.3499 6.875 8.61565 6.9845 8.83465 7.2035C9.05315 7.422 9.1624 7.6875 9.1624 8C9.1624 8.3125 9.05315 8.578 8.83465 8.7965C8.61565 9.0155 8.3499 9.125 8.0374 9.125ZM7.2499 14H8.73115L8.99365 12.0125C9.38115 11.9125 9.74065 11.7655 10.0722 11.5715C10.4032 11.378 10.7062 11.1438 10.9812 10.8687L12.8374 11.6375L13.5687 10.3625L11.9562 9.14375C12.0187 8.96875 12.0624 8.78425 12.0874 8.59025C12.1124 8.39675 12.1249 8.2 12.1249 8C12.1249 7.8 12.1124 7.603 12.0874 7.409C12.0624 7.2155 12.0187 7.03125 11.9562 6.85625L13.5687 5.6375L12.8374 4.3625L10.9812 5.15C10.7062 4.8625 10.4032 4.62175 10.0722 4.42775C9.74065 4.23425 9.38115 4.0875 8.99365 3.9875L8.7499 2H7.26865L7.00615 3.9875C6.61865 4.0875 6.2594 4.23425 5.9284 4.42775C5.5969 4.62175 5.29365 4.85625 5.01865 5.13125L3.1624 4.3625L2.43115 5.6375L4.04365 6.8375C3.98115 7.025 3.9374 7.2125 3.9124 7.4C3.8874 7.5875 3.8749 7.7875 3.8749 8C3.8749 8.2 3.8874 8.39375 3.9124 8.58125C3.9374 8.76875 3.98115 8.95625 4.04365 9.14375L2.43115 10.3625L3.1624 11.6375L5.01865 10.85C5.29365 11.1375 5.5969 11.378 5.9284 11.5715C6.2594 11.7655 6.61865 11.9125 7.00615 12.0125L7.2499 14Z" fill="#524342"/>
</svg>
