<svg width="16" height="16" viewBox="0 0 16 16" fill="none" xmlns="http://www.w3.org/2000/svg">
<path d="M7.99995 15.5187C7.79995 15.5187 7.60945 15.4812 7.42845 15.4062C7.24695 15.3312 7.0812 15.225 6.9312 15.0875L0.912451 9.0687C0.774951 8.9187 0.668701 8.75295 0.593701 8.57145C0.518701 8.39045 0.481201 8.19995 0.481201 7.99995C0.481201 7.79995 0.518701 7.6062 0.593701 7.4187C0.668701 7.2312 0.774951 7.0687 0.912451 6.9312L6.9312 0.912451C7.0812 0.762451 7.24695 0.652951 7.42845 0.583951C7.60945 0.515451 7.79995 0.481201 7.99995 0.481201C8.19995 0.481201 8.3937 0.515451 8.5812 0.583951C8.7687 0.652951 8.9312 0.762451 9.0687 0.912451L15.0875 6.9312C15.2375 7.0687 15.347 7.2312 15.416 7.4187C15.4845 7.6062 15.5187 7.79995 15.5187 7.99995C15.5187 8.19995 15.4845 8.39045 15.416 8.57145C15.347 8.75295 15.2375 8.9187 15.0875 9.0687L9.0687 15.0875C8.9312 15.225 8.7687 15.3312 8.5812 15.4062C8.3937 15.4812 8.19995 15.5187 7.99995 15.5187ZM7.99995 14.0187L14.0187 7.99995L7.99995 1.9812L1.9812 7.99995L7.99995 14.0187ZM7.24995 8.74995H8.74995V4.24995H7.24995V8.74995ZM7.99995 11C8.21245 11 8.3907 10.928 8.5347 10.784C8.6782 10.6405 8.74995 10.4625 8.74995 10.25C8.74995 10.0375 8.6782 9.8592 8.5347 9.7152C8.3907 9.5717 8.21245 9.49995 7.99995 9.49995C7.78745 9.49995 7.60945 9.5717 7.46595 9.7152C7.32195 9.8592 7.24995 10.0375 7.24995 10.25C7.24995 10.4625 7.32195 10.6405 7.46595 10.784C7.60945 10.928 7.78745 11 7.99995 11Z" fill="#524342"/>
</svg>
