<svg width="16" height="14" viewBox="0 0 16 14" fill="none" xmlns="http://www.w3.org/2000/svg">
<path d="M3.5 13.4688C2.75 13.4688 2.1095 13.203 1.5785 12.6715C1.047 12.1405 0.78125 11.5 0.78125 10.75C0.78125 10 1.047 9.3595 1.5785 8.8285C2.1095 8.297 2.75 8.03125 3.5 8.03125C4.25 8.03125 4.8905 8.297 5.4215 8.8285C5.953 9.3595 6.21875 10 6.21875 10.75C6.21875 11.5 5.953 12.1405 5.4215 12.6715C4.8905 13.203 4.25 13.4688 3.5 13.4688ZM12.5 13.4688C11.75 13.4688 11.1095 13.203 10.5785 12.6715C10.047 12.1405 9.78125 11.5 9.78125 10.75C9.78125 10 10.047 9.3595 10.5785 8.8285C11.1095 8.297 11.75 8.03125 12.5 8.03125C13.25 8.03125 13.8905 8.297 14.4215 8.8285C14.953 9.3595 15.2188 10 15.2188 10.75C15.2188 11.5 14.953 12.1405 14.4215 12.6715C13.8905 13.203 13.25 13.4688 12.5 13.4688ZM8 5.96875C7.25 5.96875 6.6095 5.703 6.0785 5.1715C5.547 4.6405 5.28125 4 5.28125 3.25C5.28125 2.5 5.547 1.8595 6.0785 1.3285C6.6095 0.797 7.25 0.53125 8 0.53125C8.75 0.53125 9.3905 0.797 9.9215 1.3285C10.453 1.8595 10.7188 2.5 10.7188 3.25C10.7188 4 10.453 4.6405 9.9215 5.1715C9.3905 5.703 8.75 5.96875 8 5.96875Z" fill="#524342"/>
</svg>
