<svg width="20" height="18" viewBox="0 0 20 18" fill="none" xmlns="http://www.w3.org/2000/svg">
<path d="M18.775 7.975V15.95C18.775 16.45 18.6 16.875 18.25 17.225C17.9 17.575 17.4666 17.75 16.95 17.75H3.07495C2.57495 17.75 2.14995 17.575 1.79995 17.225C1.44995 16.875 1.27495 16.45 1.27495 15.95V7.95C0.858285 7.61667 0.549951 7.18733 0.349951 6.662C0.149951 6.13733 0.149951 5.56667 0.349951 4.95L1.34995 1.65C1.48328 1.23333 1.71262 0.895667 2.03795 0.637C2.36262 0.379 2.74162 0.25 3.17495 0.25H16.825C17.275 0.25 17.6583 0.375 17.975 0.625C18.2916 0.875 18.5166 1.20833 18.65 1.625L19.6749 4.95C19.875 5.56667 19.875 6.13733 19.6749 6.662C19.4749 7.18733 19.1749 7.625 18.775 7.975ZM12.225 7.25C12.7583 7.25 13.1626 7.08333 13.438 6.75C13.7126 6.41667 13.825 6.05833 13.775 5.675L13.175 1.75H10.775V5.7C10.775 6.11667 10.9166 6.479 11.2 6.787C11.4833 7.09567 11.825 7.25 12.225 7.25ZM7.72495 7.25C8.17495 7.25 8.54595 7.09567 8.83795 6.787C9.12928 6.479 9.27495 6.11667 9.27495 5.7V1.75H6.84995L6.24995 5.7C6.19995 6.06667 6.31262 6.41667 6.58795 6.75C6.86262 7.08333 7.24162 7.25 7.72495 7.25ZM3.27495 7.25C3.64162 7.25 3.95828 7.121 4.22495 6.863C4.49162 6.60433 4.65828 6.28333 4.72495 5.9L5.29995 1.75H3.17495C3.07495 1.75 2.99162 1.775 2.92495 1.825C2.85828 1.875 2.80828 1.95 2.77495 2.05L1.82495 5.3C1.69162 5.71667 1.74995 6.14567 1.99995 6.587C2.24995 7.029 2.67495 7.25 3.27495 7.25ZM16.775 7.25C17.3083 7.25 17.721 7.03767 18.013 6.613C18.3043 6.18767 18.375 5.75 18.225 5.3L17.2 2.025C17.1666 1.925 17.1206 1.854 17.062 1.812C17.004 1.77067 16.9166 1.75 16.7999 1.75H14.725L15.325 5.9C15.375 6.28333 15.5333 6.60433 15.8 6.863C16.0666 7.121 16.3916 7.25 16.775 7.25ZM3.07495 16.25H16.95C17.05 16.25 17.1293 16.221 17.188 16.163C17.246 16.1043 17.275 16.0333 17.275 15.95V8.65C17.1583 8.7 17.0626 8.72933 16.988 8.738C16.9126 8.746 16.8416 8.75 16.775 8.75C16.3249 8.75 15.929 8.66667 15.587 8.5C15.2456 8.33333 14.9083 8.075 14.575 7.725C14.3083 8.04167 13.9833 8.29167 13.6 8.475C13.2166 8.65833 12.775 8.75 12.275 8.75C11.8583 8.75 11.4626 8.66267 11.088 8.488C10.7126 8.31267 10.3583 8.05833 10.025 7.725C9.70828 8.05833 9.35429 8.31267 8.96295 8.488C8.57095 8.66267 8.17495 8.75 7.77495 8.75C7.32495 8.75 6.90395 8.66667 6.51195 8.5C6.12062 8.33333 5.77495 8.075 5.47495 7.725C5.04162 8.14167 4.64995 8.41667 4.29995 8.55C3.94995 8.68333 3.60828 8.75 3.27495 8.75C3.19162 8.75 3.10828 8.746 3.02495 8.738C2.94162 8.72933 2.85828 8.7 2.77495 8.65V15.95C2.77495 16.0333 2.80428 16.1043 2.86295 16.163C2.92095 16.221 2.99162 16.25 3.07495 16.25Z" fill="white"/>
</svg>
