<svg width="18" height="18" viewBox="0 0 18 18" fill="none" xmlns="http://www.w3.org/2000/svg">
<path d="M14.4752 17.6L8.1752 11.275C7.8252 11.425 7.46686 11.5417 7.1002 11.625C6.73353 11.7083 6.3502 11.75 5.9502 11.75C4.3502 11.75 2.99186 11.1917 1.8752 10.075C0.758529 8.95833 0.200195 7.6 0.200195 6C0.200195 5.48333 0.262862 4.98767 0.388195 4.513C0.512862 4.03767 0.700195 3.59167 0.950195 3.175L4.5502 6.75L6.7002 4.6L3.1252 1.025C3.55853 0.791667 4.00853 0.604 4.47519 0.462C4.94186 0.320667 5.43353 0.25 5.9502 0.25C7.53353 0.25 8.88786 0.808334 10.0132 1.925C11.1379 3.04167 11.7002 4.4 11.7002 6C11.7002 6.41667 11.6585 6.80833 11.5752 7.175C11.4919 7.54167 11.3752 7.89167 11.2252 8.225L17.5502 14.525C17.7169 14.7083 17.8002 14.925 17.8002 15.175C17.8002 15.425 17.7169 15.6333 17.5502 15.8L15.7252 17.625C15.5585 17.7917 15.3545 17.875 15.1132 17.875C14.8712 17.875 14.6585 17.7833 14.4752 17.6ZM15.1252 16.1L16.0252 15.2L9.3752 8.525C9.65853 8.175 9.86686 7.779 10.0002 7.337C10.1335 6.89567 10.2002 6.45 10.2002 6C10.2002 4.88333 9.80453 3.9 9.0132 3.05C8.2212 2.2 7.21686 1.78333 6.0002 1.8L8.1752 3.975C8.34186 4.15833 8.42953 4.36667 8.4382 4.6C8.4462 4.83333 8.36686 5.03333 8.2002 5.2L5.1752 8.225C4.99186 8.40833 4.77953 8.5 4.5382 8.5C4.2962 8.5 4.09186 8.40833 3.9252 8.225L1.7502 6.05C1.7502 7.33333 2.1792 8.35433 3.0372 9.113C3.89586 9.871 4.86686 10.25 5.9502 10.25C6.38353 10.25 6.81686 10.1833 7.2502 10.05C7.68353 9.91667 8.08353 9.71667 8.4502 9.45L15.1252 16.1Z" fill="white"/>
</svg>
