<svg width="24" height="24" viewBox="0 0 24 24" fill="none" xmlns="http://www.w3.org/2000/svg">
<mask id="mask0_34_41464" style="mask-type:alpha" maskUnits="userSpaceOnUse" x="0" y="0" width="24" height="24">
<rect width="24" height="24" fill="#D9D9D9"/>
</mask>
<g mask="url(#mask0_34_41464)">
<path d="M18.6499 21.4748C18.5332 21.4748 18.4249 21.4541 18.3249 21.4128C18.2249 21.3708 18.1249 21.3081 18.0249 21.2248L12.9749 16.1748C12.8916 16.0915 12.8292 15.9955 12.7879 15.8868C12.7459 15.7788 12.7249 15.6665 12.7249 15.5498C12.7249 15.4331 12.7459 15.3205 12.7879 15.2118C12.8292 15.1038 12.8916 15.0081 12.9749 14.9248L14.8749 13.0248C14.9749 12.9248 15.0749 12.8581 15.1749 12.8248C15.2749 12.7915 15.3832 12.7748 15.4999 12.7748C15.6332 12.7748 15.7499 12.7915 15.8499 12.8248C15.9499 12.8581 16.0499 12.9248 16.1499 13.0248L21.1749 18.0748C21.2749 18.1581 21.3459 18.2538 21.3879 18.3618C21.4292 18.4705 21.4499 18.5831 21.4499 18.6998C21.4499 18.8165 21.4292 18.9291 21.3879 19.0378C21.3459 19.1458 21.2749 19.2415 21.1749 19.3248L19.2999 21.2248C19.1999 21.3081 19.0999 21.3708 18.9999 21.4128C18.8999 21.4541 18.7832 21.4748 18.6499 21.4748ZM18.6499 19.7748L19.7249 18.6998L15.5249 14.4998L14.4749 15.5748L18.6499 19.7748ZM5.3249 21.4998C5.19157 21.4998 5.0709 21.4748 4.9629 21.4248C4.85424 21.3748 4.75824 21.3081 4.6749 21.2248L2.7999 19.3498C2.6999 19.2498 2.62924 19.1458 2.5879 19.0378C2.5459 18.9291 2.5249 18.8165 2.5249 18.6998C2.5249 18.5831 2.5459 18.4705 2.5879 18.3618C2.62924 18.2538 2.6999 18.1498 2.7999 18.0498L8.0249 12.8248H10.1249L10.9249 12.0248L6.7499 7.8498H5.3249L2.5499 5.0748L5.0249 2.5998L7.7999 5.3748V6.7998L11.9749 10.9748L14.9499 8.0248L13.4749 6.5498L14.7499 5.2998H12.1999L11.6499 4.7498L14.8499 1.5498L15.3749 2.0998V4.6498L16.6499 3.3748L20.4249 7.1248C20.6749 7.39147 20.8666 7.68714 20.9999 8.0118C21.1332 8.33714 21.1999 8.68314 21.1999 9.0498C21.1999 9.38314 21.1459 9.69547 21.0379 9.9868C20.9292 10.2788 20.7666 10.5498 20.5499 10.7998L18.4749 8.7248L17.0499 10.1248L15.9999 9.0748L11.1749 13.8998V16.0248L5.9499 21.2248C5.8499 21.3081 5.7499 21.3748 5.6499 21.4248C5.5499 21.4748 5.44157 21.4998 5.3249 21.4998ZM5.3249 19.7498L9.8999 15.1748V14.0998H8.8499L4.2499 18.6998L5.3249 19.7498ZM5.3249 19.7498L4.2499 18.6998L4.7999 19.2248L5.3249 19.7498Z" fill="white"/>
</g>
</svg>
