<svg width="18" height="18" viewBox="0 0 18 18" fill="none" xmlns="http://www.w3.org/2000/svg">
<path d="M0.25 17.5742V4.07422H4.25V0.0742188H13.75V8.07422H17.75V17.5742H10.25V13.5742H7.75V17.5742H0.25ZM1.75 16.0742H4.25V13.5742H1.75V16.0742ZM1.75 12.0742H4.25V9.57422H1.75V12.0742ZM1.75 8.07422H4.25V5.57422H1.75V8.07422ZM5.75 12.0742H8.25V9.57422H5.75V12.0742ZM5.75 8.07422H8.25V5.57422H5.75V8.07422ZM5.75 4.07422H8.25V1.57422H5.75V4.07422ZM9.75 12.0742H12.25V9.57422H9.75V12.0742ZM9.75 8.07422H12.25V5.57422H9.75V8.07422ZM9.75 4.07422H12.25V1.57422H9.75V4.07422ZM13.75 16.0742H16.25V13.5742H13.75V16.0742ZM13.75 12.0742H16.25V9.57422H13.75V12.0742Z" fill="white"/>
</svg>
