<svg width="24" height="11" viewBox="0 0 24 11" fill="none" xmlns="http://www.w3.org/2000/svg">
<path d="M4.275 6.72578L6.4 4.60078L4.275 2.47578L2.15 4.60078L4.275 6.72578ZM17.625 6.32578L19.75 2.90078L21.9 6.32578H17.625ZM12 5.50078C11.2833 5.50078 10.671 5.24678 10.163 4.73878C9.65433 4.23011 9.4 3.61745 9.4 2.90078C9.4 2.16745 9.65433 1.55078 10.163 1.05078C10.671 0.550781 11.2833 0.300781 12 0.300781C12.7333 0.300781 13.35 0.550781 13.85 1.05078C14.35 1.55078 14.6 2.16745 14.6 2.90078C14.6 3.61745 14.35 4.23011 13.85 4.73878C13.35 5.24678 12.7333 5.50078 12 5.50078ZM12 1.80078C11.7 1.80078 11.4417 1.90911 11.225 2.12578C11.0083 2.34245 10.9 2.60078 10.9 2.90078C10.9 3.20078 11.0083 3.45911 11.225 3.67578C11.4417 3.89245 11.7 4.00078 12 4.00078C12.3167 4.00078 12.5793 3.89245 12.788 3.67578C12.996 3.45911 13.1 3.20078 13.1 2.90078C13.1 2.60078 12.996 2.34245 12.788 2.12578C12.5793 1.90911 12.3167 1.80078 12 1.80078ZM0.5 10.8008V9.57578C0.5 8.89245 0.85 8.34245 1.55 7.92578C2.25 7.50911 3.15 7.30078 4.25 7.30078C4.46667 7.30078 4.66667 7.30478 4.85 7.31278C5.03333 7.32145 5.20833 7.34245 5.375 7.37578C5.19167 7.67578 5.05 7.99245 4.95 8.32578C4.85 8.65911 4.8 9.00911 4.8 9.37578V10.8008H0.5ZM6.5 10.8008V9.42578C6.5 8.45911 7.00833 7.68845 8.025 7.11378C9.04167 6.53845 10.3667 6.25078 12 6.25078C13.65 6.25078 14.9793 6.53845 15.988 7.11378C16.996 7.68845 17.5 8.45911 17.5 9.42578V10.8008H6.5ZM19.75 7.30078C20.8667 7.30078 21.7707 7.50911 22.462 7.92578C23.154 8.34245 23.5 8.89245 23.5 9.57578V10.8008H19.2V9.37578C19.2 9.00911 19.154 8.65911 19.062 8.32578C18.9707 7.99245 18.8333 7.67578 18.65 7.37578C18.8333 7.34245 19.0167 7.32145 19.2 7.31278C19.3833 7.30478 19.5667 7.30078 19.75 7.30078ZM12 7.75078C10.9667 7.75078 10.075 7.88811 9.325 8.16278C8.575 8.43811 8.15833 8.77578 8.075 9.17578V9.30078H15.95V9.17578C15.85 8.77578 15.4293 8.43811 14.688 8.16278C13.946 7.88811 13.05 7.75078 12 7.75078Z" fill="white"/>
</svg>
