<svg width="20" height="18" viewBox="0 0 20 18" fill="none" xmlns="http://www.w3.org/2000/svg">
<path d="M4 17.625C3 17.625 2.146 17.2707 1.438 16.562C0.729333 15.854 0.375 15 0.375 14C0.375 13 0.729333 12.146 1.438 11.438C2.146 10.7293 3 10.375 4 10.375C5 10.375 5.854 10.7293 6.562 11.438C7.27067 12.146 7.625 13 7.625 14C7.625 15 7.27067 15.854 6.562 16.562C5.854 17.2707 5 17.625 4 17.625ZM16 17.625C15 17.625 14.146 17.2707 13.438 16.562C12.7293 15.854 12.375 15 12.375 14C12.375 13 12.7293 12.146 13.438 11.438C14.146 10.7293 15 10.375 16 10.375C17 10.375 17.854 10.7293 18.562 11.438C19.2707 12.146 19.625 13 19.625 14C19.625 15 19.2707 15.854 18.562 16.562C17.854 17.2707 17 17.625 16 17.625ZM10 7.625C9 7.625 8.146 7.27067 7.438 6.562C6.72933 5.854 6.375 5 6.375 4C6.375 3 6.72933 2.146 7.438 1.438C8.146 0.729334 9 0.375 10 0.375C11 0.375 11.854 0.729334 12.562 1.438C13.2707 2.146 13.625 3 13.625 4C13.625 5 13.2707 5.854 12.562 6.562C11.854 7.27067 11 7.625 10 7.625Z" fill="#1C1B1F"/>
</svg>
