<svg width="20" height="21" viewBox="0 0 20 21" fill="none" xmlns="http://www.w3.org/2000/svg">
<path d="M16.6499 20.4748C16.5332 20.4748 16.4249 20.4541 16.3249 20.4128C16.2249 20.3708 16.1249 20.3081 16.0249 20.2248L10.9749 15.1748C10.8916 15.0915 10.8292 14.9955 10.7879 14.8868C10.7459 14.7788 10.7249 14.6665 10.7249 14.5498C10.7249 14.4331 10.7459 14.3205 10.7879 14.2118C10.8292 14.1038 10.8916 14.0081 10.9749 13.9248L12.8749 12.0248C12.9749 11.9248 13.0749 11.8581 13.1749 11.8248C13.2749 11.7915 13.3832 11.7748 13.4999 11.7748C13.6332 11.7748 13.7499 11.7915 13.8499 11.8248C13.9499 11.8581 14.0499 11.9248 14.1499 12.0248L19.1749 17.0748C19.2749 17.1581 19.3459 17.2538 19.3879 17.3618C19.4292 17.4705 19.4499 17.5831 19.4499 17.6998C19.4499 17.8165 19.4292 17.9291 19.3879 18.0378C19.3459 18.1458 19.2749 18.2415 19.1749 18.3248L17.2999 20.2248C17.1999 20.3081 17.0999 20.3708 16.9999 20.4128C16.8999 20.4541 16.7832 20.4748 16.6499 20.4748ZM16.6499 18.7748L17.7249 17.6998L13.5249 13.4998L12.4749 14.5748L16.6499 18.7748ZM3.3249 20.4998C3.19157 20.4998 3.0709 20.4748 2.9629 20.4248C2.85424 20.3748 2.75824 20.3081 2.6749 20.2248L0.799902 18.3498C0.699902 18.2498 0.629236 18.1458 0.587902 18.0378C0.545902 17.9291 0.524902 17.8165 0.524902 17.6998C0.524902 17.5831 0.545902 17.4705 0.587902 17.3618C0.629236 17.2538 0.699902 17.1498 0.799902 17.0498L6.0249 11.8248H8.1249L8.9249 11.0248L4.7499 6.8498H3.3249L0.549902 4.0748L3.0249 1.5998L5.7999 4.3748V5.7998L9.9749 9.9748L12.9499 7.0248L11.4749 5.5498L12.7499 4.2998H10.1999L9.6499 3.7498L12.8499 0.549805L13.3749 1.0998V3.6498L14.6499 2.3748L18.4249 6.1248C18.6749 6.39147 18.8666 6.68714 18.9999 7.0118C19.1332 7.33714 19.1999 7.68314 19.1999 8.0498C19.1999 8.38314 19.1459 8.69547 19.0379 8.9868C18.9292 9.2788 18.7666 9.5498 18.5499 9.7998L16.4749 7.7248L15.0499 9.1248L13.9999 8.0748L9.1749 12.8998V15.0248L3.9499 20.2248C3.8499 20.3081 3.7499 20.3748 3.6499 20.4248C3.5499 20.4748 3.44157 20.4998 3.3249 20.4998ZM3.3249 18.7498L7.8999 14.1748V13.0998H6.8499L2.2499 17.6998L3.3249 18.7498ZM3.3249 18.7498L2.2499 17.6998L2.7999 18.2248L3.3249 18.7498Z" fill="#49454F"/>
</svg>
