<svg width="24" height="11" viewBox="0 0 24 11" fill="none" xmlns="http://www.w3.org/2000/svg">
<path d="M4.275 6.7248L6.4 4.5998L4.275 2.4748L2.15 4.5998L4.275 6.7248ZM17.625 6.3248L19.75 2.8998L21.9 6.3248H17.625ZM12 5.4998C11.2833 5.4998 10.671 5.2458 10.163 4.7378C9.65433 4.22914 9.4 3.61647 9.4 2.8998C9.4 2.16647 9.65433 1.5498 10.163 1.0498C10.671 0.549805 11.2833 0.299805 12 0.299805C12.7333 0.299805 13.35 0.549805 13.85 1.0498C14.35 1.5498 14.6 2.16647 14.6 2.8998C14.6 3.61647 14.35 4.22914 13.85 4.7378C13.35 5.2458 12.7333 5.4998 12 5.4998ZM12 1.7998C11.7 1.7998 11.4417 1.90814 11.225 2.1248C11.0083 2.34147 10.9 2.5998 10.9 2.8998C10.9 3.1998 11.0083 3.45814 11.225 3.6748C11.4417 3.89147 11.7 3.9998 12 3.9998C12.3167 3.9998 12.5793 3.89147 12.788 3.6748C12.996 3.45814 13.1 3.1998 13.1 2.8998C13.1 2.5998 12.996 2.34147 12.788 2.1248C12.5793 1.90814 12.3167 1.7998 12 1.7998ZM0.5 10.7998V9.57481C0.5 8.89147 0.85 8.34147 1.55 7.9248C2.25 7.50814 3.15 7.2998 4.25 7.2998C4.46667 7.2998 4.66667 7.3038 4.85 7.3118C5.03333 7.32047 5.20833 7.34147 5.375 7.3748C5.19167 7.6748 5.05 7.99147 4.95 8.3248C4.85 8.65814 4.8 9.00814 4.8 9.3748V10.7998H0.5ZM6.5 10.7998V9.4248C6.5 8.45814 7.00833 7.68747 8.025 7.1128C9.04167 6.53747 10.3667 6.2498 12 6.2498C13.65 6.2498 14.9793 6.53747 15.988 7.1128C16.996 7.68747 17.5 8.45814 17.5 9.4248V10.7998H6.5ZM19.75 7.2998C20.8667 7.2998 21.7707 7.50814 22.462 7.9248C23.154 8.34147 23.5 8.89147 23.5 9.57481V10.7998H19.2V9.3748C19.2 9.00814 19.154 8.65814 19.062 8.3248C18.9707 7.99147 18.8333 7.6748 18.65 7.3748C18.8333 7.34147 19.0167 7.32047 19.2 7.3118C19.3833 7.3038 19.5667 7.2998 19.75 7.2998ZM12 7.7498C10.9667 7.7498 10.075 7.88714 9.325 8.1618C8.575 8.43714 8.15833 8.7748 8.075 9.1748V9.2998H15.95V9.1748C15.85 8.7748 15.4293 8.43714 14.688 8.1618C13.946 7.88714 13.05 7.7498 12 7.7498Z" fill="#524342"/>
</svg>
