<svg width="40" height="40" viewBox="0 0 40 40" fill="none" xmlns="http://www.w3.org/2000/svg">
<g clip-path="url(#clip0_138_61734)">
<path d="M20 40C31.0457 40 40 31.0457 40 20C40 8.9543 31.0457 0 20 0C8.9543 0 0 8.9543 0 20C0 31.0457 8.9543 40 20 40Z" fill="black"/>
<path d="M26.1949 26.598H23.7169C23.7169 25.757 23.7169 24.931 23.7169 24.106C23.7137 23.6751 23.5408 23.2628 23.2357 22.9586C22.9305 22.6544 22.5178 22.4828 22.0869 22.481C21.5439 22.481 21.0009 22.499 20.4599 22.475C20.2368 22.447 20.0109 22.4981 19.8217 22.6194C19.6324 22.7407 19.4916 22.9246 19.4239 23.139C19.2952 23.4367 19.0805 23.6893 18.8073 23.8642C18.5341 24.0392 18.2149 24.1285 17.8906 24.1207C17.5663 24.113 17.2517 24.0086 16.9872 23.8208C16.7226 23.633 16.5202 23.3705 16.4059 23.067C16.3436 22.882 16.2211 22.7233 16.0579 22.6163C15.8947 22.5093 15.7003 22.4603 15.5059 22.477C14.6709 22.488 13.8349 22.477 12.9999 22.477C12.7811 22.477 12.5712 22.5639 12.4165 22.7186C12.2618 22.8733 12.1749 23.0831 12.1749 23.302C12.1749 23.5208 12.2618 23.7306 12.4165 23.8853C12.5712 24.04 12.7811 24.127 12.9999 24.127C13.5249 24.127 14.0509 24.144 14.5759 24.122C14.9069 24.108 15.1759 24.144 15.3279 24.487C15.3812 24.5766 15.4487 24.657 15.5279 24.725C15.8649 25.0898 16.2803 25.3735 16.7427 25.5549C17.2051 25.7362 17.7026 25.8104 18.1978 25.7719C18.693 25.7334 19.1731 25.5832 19.6019 25.3326C20.0307 25.082 20.3973 24.7375 20.6739 24.325C20.7269 24.247 20.8099 24.138 20.8839 24.134C21.2759 24.115 21.6689 24.125 22.0769 24.125V24.439C22.0769 25.4203 22.0769 26.402 22.0769 27.384C22.0681 27.5004 22.0845 27.6174 22.125 27.7269C22.1655 27.8365 22.229 27.936 22.3114 28.0188C22.3937 28.1016 22.4929 28.1658 22.6022 28.2069C22.7115 28.2479 22.8284 28.265 22.9449 28.257C24.2882 28.257 25.6316 28.257 26.9749 28.257C27.0936 28.2678 27.2132 28.2524 27.3254 28.212C27.4375 28.1716 27.5394 28.107 27.6239 28.0229C27.7084 27.9388 27.7734 27.8372 27.8143 27.7252C27.8553 27.6133 27.8712 27.4937 27.8609 27.375C27.8609 25.713 27.8659 24.051 27.8609 22.389C27.8415 21.3191 27.4073 20.2987 26.6498 19.543C25.8923 18.7874 24.8707 18.3556 23.8009 18.339C22.9659 18.339 22.1299 18.321 21.2949 18.346C21.1467 18.3642 20.9964 18.339 20.8623 18.2733C20.7283 18.2076 20.6162 18.1043 20.5399 17.976C20.1094 17.3868 19.4876 16.9654 18.7809 16.784V14.212H19.0459C19.7689 14.212 20.4929 14.212 21.2159 14.212C21.3246 14.2121 21.4322 14.1908 21.5326 14.1493C21.6331 14.1079 21.7244 14.047 21.8013 13.9703C21.8782 13.8935 21.9393 13.8024 21.981 13.702C22.0227 13.6017 22.0442 13.4941 22.0444 13.3855C22.0445 13.2768 22.0232 13.1692 21.9818 13.0687C21.9403 12.9683 21.8795 12.877 21.8027 12.8C21.726 12.7231 21.6348 12.662 21.5345 12.6203C21.4341 12.5786 21.3266 12.5571 21.2179 12.557C20.7869 12.557 20.3569 12.557 19.9259 12.557H18.7739C18.6869 12.042 18.3909 11.744 17.9739 11.731C17.5049 11.716 17.2139 11.979 17.0739 12.557C16.2739 12.557 15.4609 12.557 14.6519 12.557C14.5398 12.5514 14.4278 12.5691 14.323 12.6089C14.2181 12.6487 14.1226 12.7098 14.0424 12.7883C13.9623 12.8668 13.8993 12.9611 13.8574 13.0652C13.8155 13.1692 13.7956 13.2808 13.7989 13.393C13.7989 13.5028 13.8212 13.6115 13.8643 13.7126C13.9074 13.8136 13.9705 13.9049 14.0498 13.981C14.1291 14.057 14.223 14.1162 14.3258 14.155C14.4285 14.1939 14.5381 14.2115 14.6479 14.207C15.3709 14.207 16.0949 14.207 16.8179 14.207H17.0979V16.774C17.076 16.7897 17.0526 16.8031 17.0279 16.814C16.2432 17.0461 15.5686 17.5535 15.1279 18.243C15.098 18.2747 15.0619 18.3 15.0218 18.3172C14.9817 18.3344 14.9385 18.3432 14.8949 18.343C14.2749 18.351 13.6549 18.343 13.0349 18.343C12.9211 18.3341 12.8067 18.3489 12.6988 18.3863C12.591 18.4238 12.4921 18.4831 12.4083 18.5607C12.3245 18.6382 12.2576 18.7322 12.2119 18.8368C12.1662 18.9414 12.1426 19.0543 12.1426 19.1685C12.1426 19.2826 12.1662 19.3955 12.2119 19.5001C12.2576 19.6047 12.3245 19.6987 12.4083 19.7762C12.4921 19.8538 12.591 19.9131 12.6988 19.9506C12.8067 19.9881 12.9211 20.0028 13.0349 19.994C13.8529 19.994 14.6709 19.985 15.4889 19.994C15.6876 20.0117 15.8865 19.9623 16.0537 19.8535C16.2209 19.7446 16.3467 19.5828 16.4109 19.394C16.5278 19.0863 16.7352 18.8214 17.0058 18.6341C17.2763 18.4468 17.5974 18.3459 17.9265 18.3448C18.2555 18.3438 18.5772 18.4425 18.849 18.628C19.1208 18.8135 19.33 19.0771 19.4489 19.384C19.5152 19.5762 19.644 19.7407 19.8147 19.8511C19.9855 19.9615 20.1884 20.0114 20.3909 19.993C21.4929 19.979 22.5952 19.979 23.6979 19.993C24.3437 19.9827 24.9676 20.2276 25.4339 20.6745C25.9003 21.1214 26.1716 21.7343 26.1889 22.38C26.2259 23.774 26.1969 25.169 26.1969 26.59" fill="white"/>
</g>
<defs>
<clipPath id="clip0_138_61734">
<rect width="40" height="40" fill="white"/>
</clipPath>
</defs>
</svg>
